OxygenSans-Regular-ROBO.ufo
<glyph name="exclam" format="1">
  <advance width="540"/>
  <unicode hex="0021"/>
  <outline>
    <contour>
      <point x="236" y="429" type="line"/>
      <point x="302" y="429" type="line"/>
      <point x="354" y="1335" type="line"/>
      <point x="354" y="1457" type="line"/>
      <point x="178" y="1457" type="line"/>
      <point x="178" y="1335" type="line"/>
    </contour>
    <contour>
      <point x="270" y="-13" type="curve" smooth="yes"/>
      <point x="350" y="-13"/>
      <point x="385" y="45"/>
      <point x="385" y="105" type="curve" smooth="yes"/>
      <point x="385" y="162"/>
      <point x="350" y="222"/>
      <point x="270" y="222" type="curve" smooth="yes"/>
      <point x="190" y="222"/>
      <point x="155" y="162"/>
      <point x="155" y="105" type="curve" smooth="yes"/>
      <point x="155" y="47"/>
      <point x="190" y="-13"/>
    </contour>
  </outline>
</glyph>
<glyph name="quotedbl" format="1">
  <advance width="641"/>
  <unicode hex="0022"/>
  <outline>
    <contour>
      <point x="154" y="843" type="line"/>
      <point x="229" y="843" type="line"/>
      <point x="292" y="1475" type="line"/>
      <point x="94" y="1475" type="line"/>
    </contour>
    <contour>
      <point x="423" y="843" type="line"/>
      <point x="499" y="843" type="line"/>
      <point x="568" y="1475" type="line"/>
      <point x="380" y="1475" type="line"/>
    </contour>
  </outline>
</glyph>
<glyph name="numbersign" format="1">
  <advance width="1204"/>
  <unicode hex="0023"/>
  <outline>
    <contour>
      <point x="582" y="-20" type="line"/>
      <point x="707" y="-20" type="line"/>
      <point x="800" y="442" type="line"/>
      <point x="1008" y="442" type="line"/>
      <point x="1023" y="536" type="line"/>
      <point x="820" y="536" type="line"/>
      <point x="913" y="992" type="line"/>
      <point x="1104" y="992" type="line"/>
      <point x="1119" y="1085" type="line"/>
      <point x="931" y="1085" type="line"/>
      <point x="1013" y="1497" type="line"/>
      <point x="889" y="1497" type="line"/>
      <point x="806" y="1085" type="line"/>
      <point x="523" y="1085" type="line"/>
      <point x="605" y="1497" type="line"/>
      <point x="479" y="1497" type="line"/>
      <point x="397" y="1085" type="line"/>
      <point x="194" y="1085" type="line"/>
      <point x="181" y="992" type="line"/>
      <point x="378" y="992" type="line"/>
      <point x="285" y="536" type="line"/>
      <point x="98" y="536" type="line"/>
      <point x="85" y="442" type="line"/>
      <point x="267" y="442" type="line"/>
      <point x="174" y="-20" type="line"/>
      <point x="298" y="-20" type="line"/>
      <point x="392" y="442" type="line"/>
      <point x="674" y="442" type="line"/>
    </contour>
    <contour>
      <point x="694" y="536" type="line"/>
      <point x="410" y="536" type="line"/>
      <point x="504" y="992" type="line"/>
      <point x="787" y="992" type="line"/>
    </contour>
  </outline>
</glyph>
<glyph name="percent" format="1">
  <advance width="1498"/>
  <unicode hex="0025"/>
  <outline>
    <contour>
      <point x="272" y="0" type="line"/>
      <point x="1101" y="1457" type="line"/>
      <point x="1223" y="1457" type="line"/>
      <point x="404" y="0" type="line"/>
    </contour>
    <contour>
      <point x="376" y="714" type="curve" smooth="yes"/>
      <point x="150" y="714"/>
      <point x="77" y="881"/>
      <point x="77" y="1096" type="curve" smooth="yes"/>
      <point x="77" y="1313"/>
      <point x="154" y="1477"/>
      <point x="376" y="1477" type="curve" smooth="yes"/>
      <point x="603" y="1477"/>
      <point x="676" y="1316"/>
      <point x="676" y="1096" type="curve" smooth="yes"/>
      <point x="676" y="881"/>
      <point x="600" y="714"/>
    </contour>
    <contour>
      <point x="377" y="810" type="curve" smooth="yes"/>
      <point x="533" y="810"/>
      <point x="560" y="936"/>
      <point x="560" y="1097" type="curve" smooth="yes"/>
      <point x="560" y="1264"/>
      <point x="532" y="1381"/>
      <point x="377" y="1381" type="curve" smooth="yes"/>
      <point x="221" y="1381"/>
      <point x="193" y="1258"/>
      <point x="193" y="1097" type="curve" smooth="yes"/>
      <point x="193" y="931"/>
      <point x="221" y="810"/>
    </contour>
    <contour>
      <point x="1122" y="94" type="curve" smooth="yes"/>
      <point x="1278" y="94"/>
      <point x="1305" y="221"/>
      <point x="1305" y="382" type="curve" smooth="yes"/>
      <point x="1305" y="549"/>
      <point x="1277" y="666"/>
      <point x="1122" y="666" type="curve" smooth="yes"/>
      <point x="966" y="666"/>
      <point x="938" y="543"/>
      <point x="938" y="382" type="curve" smooth="yes"/>
      <point x="938" y="216"/>
      <point x="966" y="94"/>
    </contour>
    <contour>
      <point x="1121" y="-1" type="curve" smooth="yes"/>
      <point x="895" y="-1"/>
      <point x="822" y="166"/>
      <point x="822" y="381" type="curve" smooth="yes"/>
      <point x="822" y="598"/>
      <point x="899" y="763"/>
      <point x="1121" y="763" type="curve" smooth="yes"/>
      <point x="1348" y="763"/>
      <point x="1421" y="601"/>
      <point x="1421" y="381" type="curve" smooth="yes"/>
      <point x="1421" y="166"/>
      <point x="1345" y="-1"/>
    </contour>
  </outline>
</glyph>
<glyph name="ampersand" format="1">
  <advance width="1276"/>
  <unicode hex="0026"/>
  <outline>
    <contour>
      <point x="943" y="1194" type="curve" smooth="yes"/>
      <point x="943" y="1396"/>
      <point x="800" y="1496"/>
      <point x="598" y="1496" type="curve" smooth="yes"/>
      <point x="376" y="1496"/>
      <point x="217" y="1368"/>
      <point x="217" y="1176" type="curve" smooth="yes"/>
      <point x="217" y="1054"/>
      <point x="269" y="948"/>
      <point x="364" y="840" type="curve" smooth="yes"/>
      <point x="391" y="810" type="line"/>
      <point x="234" y="720"/>
      <point x="92" y="603"/>
      <point x="92" y="362" type="curve" smooth="yes"/>
      <point x="92" y="160"/>
      <point x="298" y="-20"/>
      <point x="560" y="-20" type="curve" smooth="yes"/>
      <point x="693" y="-20"/>
      <point x="840" y="27"/>
      <point x="982" y="138" type="curve"/>
      <point x="1135" y="-36" type="line"/>
      <point x="1251" y="62" type="line"/>
      <point x="1092" y="240" type="line"/>
      <point x="1159" y="311"/>
      <point x="1222" y="400"/>
      <point x="1282" y="506" type="curve"/>
      <point x="1168" y="583" type="line"/>
      <point x="1115" y="486"/>
      <point x="1058" y="406"/>
      <point x="1000" y="341" type="curve"/>
      <point x="599" y="787" type="line"/>
      <point x="771" y="881"/>
      <point x="943" y="976"/>
    </contour>
    <contour>
      <point x="518" y="877" type="curve"/>
      <point x="496" y="902" type="line" smooth="yes"/>
      <point x="402" y="1006"/>
      <point x="364" y="1093"/>
      <point x="364" y="1187" type="curve" smooth="yes"/>
      <point x="364" y="1305"/>
      <point x="475" y="1374"/>
      <point x="600" y="1374" type="curve" smooth="yes"/>
      <point x="729" y="1374"/>
      <point x="794" y="1309"/>
      <point x="794" y="1189" type="curve" smooth="yes"/>
      <point x="794" y="1032"/>
      <point x="665" y="955"/>
    </contour>
    <contour>
      <point x="892" y="240" type="line"/>
      <point x="779" y="153"/>
      <point x="666" y="116"/>
      <point x="566" y="116" type="curve" smooth="yes"/>
      <point x="386" y="116"/>
      <point x="252" y="233"/>
      <point x="252" y="378" type="curve" smooth="yes"/>
      <point x="252" y="544"/>
      <point x="351" y="638"/>
      <point x="474" y="715" type="curve"/>
    </contour>
  </outline>
</glyph>
<glyph name="parenleft" format="1">
  <advance width="702"/>
  <unicode hex="0028"/>
  <outline>
    <contour>
      <point x="454" y="-229" type="curve"/>
      <point x="608" y="-229" type="line"/>
      <point x="424" y="67"/>
      <point x="356" y="389"/>
      <point x="356" y="714" type="curve" smooth="yes"/>
      <point x="356" y="1024"/>
      <point x="431" y="1311"/>
      <point x="609" y="1590" type="curve"/>
      <point x="452" y="1590" type="line"/>
      <point x="288" y="1345"/>
      <point x="194" y="1040"/>
      <point x="194" y="710" type="curve" smooth="yes"/>
      <point x="194" y="349"/>
      <point x="290" y="5"/>
    </contour>
  </outline>
</glyph>
<glyph name="comma" format="1">
  <advance width="485"/>
  <unicode hex="002C"/>
  <outline>
    <contour>
      <point x="137" y="-300" type="line"/>
      <point x="234" y="-300" type="line"/>
      <point x="351" y="152" type="line"/>
      <point x="351" y="235" type="line"/>
      <point x="178" y="235" type="line"/>
    </contour>
  </outline>
</glyph>
<glyph name="hyphen" format="1">
  <advance width="561"/>
  <unicode hex="002D"/>
  <outline>
    <contour>
      <point x="35" y="535" type="line"/>
      <point x="526" y="535" type="line"/>
      <point x="526" y="690" type="line"/>
      <point x="35" y="690" type="line"/>
    </contour>
  </outline>
</glyph>
<glyph name="slash" format="1">
  <advance width="851"/>
  <unicode hex="002F"/>
  <outline>
    <contour>
      <point x="47" y="0" type="line"/>
      <point x="191" y="0" type="line"/>
      <point x="804" y="1496" type="line"/>
      <point x="656" y="1496" type="line"/>
    </contour>
  </outline>
</glyph>
<glyph name="one" format="1">
  <advance width="1154"/>
  <unicode hex="0031"/>
  <outline>
    <contour>
      <point x="204" y="0" type="line"/>
      <point x="1036" y="0" type="line"/>
      <point x="1036" y="123" type="line"/>
      <point x="722" y="123" type="line"/>
      <point x="722" y="1456" type="line"/>
      <point x="569" y="1456" type="line"/>
      <point x="493" y="1402"/>
      <point x="318" y="1347"/>
      <point x="235" y="1329" type="curve"/>
      <point x="235" y="1194" type="line"/>
      <point x="318" y="1205"/>
      <point x="467" y="1249"/>
      <point x="556" y="1301" type="curve"/>
      <point x="556" y="123" type="line"/>
      <point x="204" y="123" type="line"/>
    </contour>
  </outline>
</glyph>
<glyph name="two" format="1">
  <advance width="1154"/>
  <unicode hex="0032"/>
  <outline>
    <contour>
      <point x="123" y="0" type="line"/>
      <point x="1041" y="0" type="line"/>
      <point x="1050" y="123" type="line"/>
      <point x="237" y="123" type="line"/>
      <point x="256" y="95" type="line"/>
      <point x="735" y="573" type="line" smooth="yes"/>
      <point x="927" y="765"/>
      <point x="1007" y="865"/>
      <point x="1007" y="1074" type="curve" smooth="yes"/>
      <point x="1007" y="1385"/>
      <point x="758" y="1476"/>
      <point x="574" y="1476" type="curve" smooth="yes"/>
      <point x="308" y="1476"/>
      <point x="187" y="1355"/>
      <point x="133" y="1260" type="curve"/>
      <point x="229" y="1160" type="line"/>
      <point x="288" y="1249"/>
      <point x="391" y="1334"/>
      <point x="574" y="1334" type="curve" smooth="yes"/>
      <point x="689" y="1334"/>
      <point x="845" y="1284"/>
      <point x="845" y="1058" type="curve" smooth="yes"/>
      <point x="845" y="890"/>
      <point x="771" y="826"/>
      <point x="627" y="684" type="curve" smooth="yes"/>
      <point x="97" y="134" type="line"/>
    </contour>
  </outline>
</glyph>
<glyph name="three" format="1">
  <advance width="1154"/>
  <unicode hex="0033"/>
  <outline>
    <contour>
      <point x="587" y="-20" type="curve"/>
      <point x="894" y="-20"/>
      <point x="1041" y="226"/>
      <point x="1028" y="419" type="curve"/>
      <point x="1028" y="630"/>
      <point x="877.0" y="744.0"/>
      <point x="682.0" y="774.0" type="curve"/>
      <point x="682.0" y="757.0" type="line"/>
      <point x="874.0" y="790.0"/>
      <point x="989.0" y="920.0"/>
      <point x="989.0" y="1095.0" type="curve"/>
      <point x="989.0" y="1273.0"/>
      <point x="825.0" y="1476.0"/>
      <point x="560.0" y="1476.0" type="curve"/>
      <point x="435.0" y="1476.0"/>
      <point x="214" y="1433"/>
      <point x="116" y="1223" type="curve"/>
      <point x="232.0" y="1143.0" type="line"/>
      <point x="317.0" y="1304.0"/>
      <point x="453.0" y="1335.0"/>
      <point x="555.0" y="1335.0" type="curve"/>
      <point x="720.0" y="1335.0"/>
      <point x="824" y="1235"/>
      <point x="824" y="1083" type="curve"/>
      <point x="824" y="863"/>
      <point x="588" y="833"/>
      <point x="463" y="833" type="curve" smooth="yes"/>
      <point x="420.0" y="833.0" type="line"/>
      <point x="420.0" y="696.0" type="line"/>
      <point x="462" y="696" type="line" smooth="yes"/>
      <point x="686" y="696"/>
      <point x="861" y="651"/>
      <point x="861" y="412" type="curve" smooth="yes"/>
      <point x="861" y="223"/>
      <point x="725" y="123"/>
      <point x="586" y="123" type="curve" smooth="yes"/>
      <point x="500" y="123"/>
      <point x="347.0" y="140.0"/>
      <point x="261.0" y="297.0" type="curve"/>
      <point x="144.0" y="216.0" type="line"/>
      <point x="235.0" y="24.0"/>
      <point x="469" y="-20"/>
    </contour>
  </outline>
</glyph>
<glyph name="four" format="1">
  <advance width="1154"/>
  <unicode hex="0034"/>
  <outline>
    <contour>
      <point x="220" y="513" type="line"/>
      <point x="750" y="1245" type="line"/>
      <point x="750" y="513" type="line"/>
    </contour>
    <contour>
      <point x="750" y="0" type="line"/>
      <point x="908" y="0" type="line"/>
      <point x="908" y="377" type="line"/>
      <point x="1095" y="377" type="line"/>
      <point x="1107" y="513" type="line"/>
      <point x="908" y="513" type="line"/>
      <point x="908" y="1456" type="line"/>
      <point x="739" y="1456" type="line"/>
      <point x="55" y="525" type="line"/>
      <point x="75" y="377" type="line"/>
      <point x="750" y="377" type="line"/>
    </contour>
  </outline>
</glyph>
<glyph name="five" format="1">
  <advance width="1154"/>
  <unicode hex="0035"/>
  <outline>
    <contour>
      <point x="602" y="-20" type="curve" smooth="yes"/>
      <point x="875" y="-20"/>
      <point x="1075" y="147"/>
      <point x="1075" y="476" type="curve" smooth="yes"/>
      <point x="1075" y="724"/>
      <point x="923" y="947"/>
      <point x="641" y="947" type="curve" smooth="yes"/>
      <point x="531" y="947"/>
      <point x="437" y="894"/>
      <point x="363" y="842" type="curve"/>
      <point x="379" y="1321" type="line"/>
      <point x="993" y="1321" type="line"/>
      <point x="1006" y="1456" type="line"/>
      <point x="238" y="1456" type="line"/>
      <point x="210" y="696" type="line"/>
      <point x="344" y="679" type="line"/>
      <point x="406" y="747"/>
      <point x="517" y="813"/>
      <point x="615" y="813" type="curve" smooth="yes"/>
      <point x="825" y="813"/>
      <point x="906" y="648"/>
      <point x="906" y="473" type="curve" smooth="yes"/>
      <point x="906" y="247"/>
      <point x="797" y="124"/>
      <point x="602" y="124" type="curve" smooth="yes"/>
      <point x="426" y="124"/>
      <point x="316" y="224"/>
      <point x="259" y="366" type="curve"/>
      <point x="133" y="274" type="line"/>
      <point x="212" y="122"/>
      <point x="344" y="-20"/>
    </contour>
  </outline>
</glyph>
<glyph name="six" format="1">
  <advance width="1154"/>
  <unicode hex="0036"/>
  <outline>
    <contour>
      <point x="580" y="114" type="curve" smooth="yes"/>
      <point x="377" y="114"/>
      <point x="269" y="266"/>
      <point x="269" y="438" type="curve" smooth="yes"/>
      <point x="269" y="681"/>
      <point x="456" y="759"/>
      <point x="586" y="759" type="curve" smooth="yes"/>
      <point x="782" y="759"/>
      <point x="892" y="625"/>
      <point x="892" y="444" type="curve" smooth="yes"/>
      <point x="892" y="270"/>
      <point x="783" y="114"/>
    </contour>
    <contour>
      <point x="584" y="-20" type="curve" smooth="yes"/>
      <point x="871" y="-20"/>
      <point x="1053" y="188"/>
      <point x="1053" y="445" type="curve" smooth="yes"/>
      <point x="1053" y="711"/>
      <point x="876" y="891"/>
      <point x="644" y="891" type="curve" smooth="yes"/>
      <point x="531" y="891"/>
      <point x="394" y="833"/>
      <point x="327" y="753" type="curve"/>
      <point x="358" y="774" type="line"/>
      <point x="507" y="984" type="line" smooth="yes"/>
      <point x="853" y="1456" type="line"/>
      <point x="664" y="1456" type="line"/>
      <point x="329" y="1001" type="line" smooth="yes"/>
      <point x="190" y="812"/>
      <point x="110" y="667"/>
      <point x="110" y="448" type="curve" smooth="yes"/>
      <point x="110" y="204"/>
      <point x="282" y="-20"/>
    </contour>
  </outline>
</glyph>
<glyph name="eight" format="1">
  <advance width="1154"/>
  <unicode hex="0038"/>
  <outline>
    <contour>
      <point x="578" y="818" type="curve"/>
      <point x="393" y="860"/>
      <point x="297" y="960"/>
      <point x="297" y="1120" type="curve" smooth="yes"/>
      <point x="297" y="1265"/>
      <point x="410" y="1350"/>
      <point x="578" y="1350" type="curve" smooth="yes"/>
      <point x="747" y="1350"/>
      <point x="857" y="1265"/>
      <point x="857" y="1120" type="curve" smooth="yes"/>
      <point x="857" y="960"/>
      <point x="765" y="860"/>
    </contour>
    <contour>
      <point x="578" y="111" type="curve" smooth="yes"/>
      <point x="371" y="111"/>
      <point x="261" y="204"/>
      <point x="261" y="379" type="curve" smooth="yes"/>
      <point x="261" y="558"/>
      <point x="398" y="658"/>
      <point x="578" y="698" type="curve"/>
      <point x="759" y="658"/>
      <point x="892" y="552"/>
      <point x="892" y="380" type="curve" smooth="yes"/>
      <point x="892" y="198"/>
      <point x="791" y="111"/>
    </contour>
    <contour>
      <point x="578" y="-20" type="curve" smooth="yes"/>
      <point x="836" y="-20"/>
      <point x="1049" y="104"/>
      <point x="1049" y="364" type="curve" smooth="yes"/>
      <point x="1049" y="554"/>
      <point x="930" y="704"/>
      <point x="747" y="765" type="curve"/>
      <point x="907" y="824"/>
      <point x="1017" y="934"/>
      <point x="1017" y="1115" type="curve" smooth="yes"/>
      <point x="1017" y="1348"/>
      <point x="835" y="1476"/>
      <point x="579" y="1476" type="curve" smooth="yes"/>
      <point x="323" y="1476"/>
      <point x="137" y="1348"/>
      <point x="137" y="1115" type="curve" smooth="yes"/>
      <point x="137" y="934"/>
      <point x="257" y="815"/>
      <point x="412" y="763" type="curve"/>
      <point x="220" y="695"/>
      <point x="106" y="569"/>
      <point x="106" y="364" type="curve" smooth="yes"/>
      <point x="106" y="104"/>
      <point x="322" y="-20"/>
    </contour>
  </outline>
</glyph>
<glyph name="nine" format="1">
  <advance width="1154"/>
  <unicode hex="0039"/>
  <outline>
    <contour>
      <point x="607" y="697" type="curve" smooth="yes"/>
      <point x="399" y="693"/>
      <point x="294" y="836"/>
      <point x="294" y="1018" type="curve" smooth="yes"/>
      <point x="294" y="1192"/>
      <point x="412" y="1344"/>
      <point x="615" y="1344" type="curve" smooth="yes"/>
      <point x="818" y="1344"/>
      <point x="930" y="1191"/>
      <point x="930" y="1019" type="curve" smooth="yes"/>
      <point x="930" y="775"/>
      <point x="737" y="700"/>
    </contour>
    <contour>
      <point x="303" y="0" type="line"/>
      <point x="499" y="0" type="line"/>
      <point x="856" y="460" type="line" smooth="yes"/>
      <point x="989" y="647"/>
      <point x="1088" y="790"/>
      <point x="1088" y="1008" type="curve" smooth="yes"/>
      <point x="1088" y="1252"/>
      <point x="916" y="1476"/>
      <point x="614" y="1476" type="curve" smooth="yes"/>
      <point x="327" y="1476"/>
      <point x="132" y="1274"/>
      <point x="132" y="1016" type="curve" smooth="yes"/>
      <point x="132" y="749"/>
      <point x="338" y="565"/>
      <point x="578" y="565" type="curve" smooth="yes"/>
      <point x="702" y="565"/>
      <point x="783" y="606"/>
      <point x="863" y="662" type="curve"/>
      <point x="841" y="684" type="line"/>
      <point x="682" y="481" type="line"/>
    </contour>
  </outline>
</glyph>
<glyph name="colon" format="1">
  <advance width="517"/>
  <unicode hex="003A"/>
  <outline>
    <contour>
      <point x="278" y="-10" type="curve" smooth="yes"/>
      <point x="360" y="-10"/>
      <point x="395" y="50"/>
      <point x="395" y="112" type="curve" smooth="yes"/>
      <point x="395" y="172"/>
      <point x="360" y="235"/>
      <point x="278" y="235" type="curve" smooth="yes"/>
      <point x="195" y="235"/>
      <point x="157" y="172"/>
      <point x="157" y="112" type="curve" smooth="yes"/>
      <point x="157" y="50"/>
      <point x="196" y="-10"/>
    </contour>
    <contour>
      <point x="278" y="838" type="curve" smooth="yes"/>
      <point x="360" y="838"/>
      <point x="395" y="898"/>
      <point x="395" y="960" type="curve" smooth="yes"/>
      <point x="395" y="1020"/>
      <point x="360" y="1083"/>
      <point x="278" y="1083" type="curve" smooth="yes"/>
      <point x="195" y="1083"/>
      <point x="157" y="1020"/>
      <point x="157" y="960" type="curve" smooth="yes"/>
      <point x="157" y="898"/>
      <point x="196" y="838"/>
    </contour>
  </outline>
</glyph>
<glyph name="semicolon" format="1">
  <advance width="525"/>
  <unicode hex="003B"/>
  <outline>
    <contour>
      <point x="278" y="847" type="curve" smooth="yes"/>
      <point x="360" y="847"/>
      <point x="395" y="907"/>
      <point x="395" y="969" type="curve" smooth="yes"/>
      <point x="395" y="1029"/>
      <point x="360" y="1092"/>
      <point x="278" y="1092" type="curve" smooth="yes"/>
      <point x="195" y="1092"/>
      <point x="157" y="1029"/>
      <point x="157" y="969" type="curve" smooth="yes"/>
      <point x="157" y="907"/>
      <point x="196" y="847"/>
    </contour>
    <contour>
      <point x="157" y="-300" type="line"/>
      <point x="254" y="-300" type="line"/>
      <point x="371" y="152" type="line"/>
      <point x="371" y="235" type="line"/>
      <point x="198" y="235" type="line"/>
    </contour>
  </outline>
</glyph>
<glyph name="less" format="1">
  <advance width="1204"/>
  <unicode hex="003C"/>
  <outline>
    <contour>
      <point x="1037" y="135" type="line"/>
      <point x="1038" y="280" type="line"/>
      <point x="295" y="640" type="line"/>
      <point x="1040" y="1026" type="line"/>
      <point x="1040" y="1169" type="line"/>
      <point x="110" y="680" type="line"/>
      <point x="110" y="591" type="line"/>
    </contour>
  </outline>
</glyph>
<glyph name="question" format="1">
  <advance width="974"/>
  <unicode hex="003F"/>
  <outline>
    <contour>
      <point x="458" y="-13" type="curve" smooth="yes"/>
      <point x="537" y="-13"/>
      <point x="572" y="41"/>
      <point x="572" y="101" type="curve" smooth="yes"/>
      <point x="572" y="158"/>
      <point x="537" y="214"/>
      <point x="458" y="214" type="curve" smooth="yes"/>
      <point x="379" y="214"/>
      <point x="343" y="158"/>
      <point x="343" y="101" type="curve" smooth="yes"/>
      <point x="343" y="43"/>
      <point x="379" y="-13"/>
    </contour>
    <contour>
      <point x="460" y="1343" type="curve" smooth="yes"/>
      <point x="585" y="1343"/>
      <point x="658" y="1273"/>
      <point x="658" y="1127" type="curve" smooth="yes"/>
      <point x="658" y="908"/>
      <point x="409" y="731"/>
      <point x="400" y="424" type="curve"/>
      <point x="483" y="424" type="line"/>
      <point x="582" y="788"/>
      <point x="817" y="836"/>
      <point x="817" y="1132" type="curve" smooth="yes"/>
      <point x="817" y="1380"/>
      <point x="657" y="1477"/>
      <point x="478" y="1477" type="curve" smooth="yes"/>
      <point x="354" y="1477"/>
      <point x="257" y="1437"/>
      <point x="184" y="1382" type="curve"/>
      <point x="217" y="1256" type="line"/>
      <point x="259" y="1285"/>
      <point x="354" y="1343"/>
    </contour>
  </outline>
</glyph>
<glyph name="at" format="1">
  <advance width="1833"/>
  <unicode hex="0040"/>
  <outline>
    <contour>
      <point x="854" y="377" type="curve" smooth="yes"/>
      <point x="746" y="377"/>
      <point x="685" y="471"/>
      <point x="685" y="613" type="curve" smooth="yes"/>
      <point x="685" y="815"/>
      <point x="804" y="1017"/>
      <point x="991" y="1017" type="curve" smooth="yes"/>
      <point x="1027" y="1017"/>
      <point x="1084" y="1009"/>
      <point x="1129" y="999" type="curve"/>
      <point x="1115" y="912"/>
      <point x="1088" y="753"/>
      <point x="1086" y="739" type="curve" smooth="yes"/>
      <point x="1054" y="538"/>
      <point x="1006" y="377"/>
    </contour>
    <contour>
      <point x="901" y="-151" type="curve" smooth="yes"/>
      <point x="1092" y="-151"/>
      <point x="1285" y="-102"/>
      <point x="1413" y="-14" type="curve"/>
      <point x="1371" y="89" type="line"/>
      <point x="1236" y="3"/>
      <point x="1068" y="-28"/>
      <point x="904" y="-28" type="curve" smooth="yes"/>
      <point x="484" y="-28"/>
      <point x="252" y="249"/>
      <point x="252" y="654" type="curve" smooth="yes"/>
      <point x="252" y="1079"/>
      <point x="526" y="1408"/>
      <point x="961" y="1408" type="curve" smooth="yes"/>
      <point x="1389" y="1408"/>
      <point x="1598" y="1143"/>
      <point x="1598" y="803" type="curve" smooth="yes"/>
      <point x="1598" y="528"/>
      <point x="1473" y="387"/>
      <point x="1356" y="387" type="curve" smooth="yes"/>
      <point x="1281" y="387"/>
      <point x="1223" y="448"/>
      <point x="1223" y="531" type="curve" smooth="yes"/>
      <point x="1223" y="657"/>
      <point x="1260" y="844"/>
      <point x="1288" y="1049" type="curve"/>
      <point x="1202" y="1093"/>
      <point x="1071" y="1122"/>
      <point x="975" y="1122" type="curve" smooth="yes"/>
      <point x="691" y="1122"/>
      <point x="541" y="866"/>
      <point x="541" y="616" type="curve" smooth="yes"/>
      <point x="541" y="417"/>
      <point x="649" y="262"/>
      <point x="837" y="262" type="curve" smooth="yes"/>
      <point x="978" y="262"/>
      <point x="1070" y="372"/>
      <point x="1119" y="480" type="curve"/>
      <point x="1149" y="349"/>
      <point x="1226" y="266"/>
      <point x="1356" y="266" type="curve" smooth="yes"/>
      <point x="1527" y="266"/>
      <point x="1725" y="445"/>
      <point x="1725" y="795" type="curve" smooth="yes"/>
      <point x="1725" y="1244"/>
      <point x="1397" y="1527"/>
      <point x="968" y="1527" type="curve" smooth="yes"/>
      <point x="471" y="1527"/>
      <point x="108" y="1158"/>
      <point x="108" y="658" type="curve" smooth="yes"/>
      <point x="108" y="156"/>
      <point x="432" y="-151"/>
    </contour>
  </outline>
</glyph>
<glyph name="A" format="1">
  <advance width="1326"/>
  <unicode hex="0041"/>
  <outline>
    <contour>
      <point x="20" y="0" type="line"/>
      <point x="200" y="0" type="line"/>
      <point x="371" y="462" type="line"/>
      <point x="960" y="462" type="line"/>
      <point x="1132" y="0" type="line"/>
      <point x="1306" y="0" type="line"/>
      <point x="749" y="1456" type="line"/>
      <point x="578" y="1456" type="line"/>
    </contour>
    <contour>
      <point x="920" y="587" type="line"/>
      <point x="412" y="587" type="line"/>
      <point x="665" y="1280" type="line"/>
    </contour>
    <contour>
      <point x="664.0" y="0.0" type="move" name="bot"/>
    </contour>
    <contour>
      <point x="1200.0" y="0.0" type="move" name="ogonek"/>
    </contour>
    <contour>
      <point x="662.0" y="1496.5" type="move" name="top"/>
    </contour>
  </outline>
</glyph>
<glyph name="B" format="1">
  <advance width="1309.09942806"/>
  <unicode hex="0042"/>
  <outline>
    <contour>
      <point x="180" y="12" type="line"/>
      <point x="953" y="-38"/>
      <point x="1194" y="48"/>
      <point x="1199" y="423" type="curve" smooth="yes"/>
      <point x="1202" y="623"/>
      <point x="1138" y="760"/>
      <point x="886" y="800" type="curve"/>
      <point x="1066" y="850"/>
      <point x="1137" y="944"/>
      <point x="1137" y="1099" type="curve" smooth="yes"/>
      <point x="1137" y="1255"/>
      <point x="1139" y="1543"/>
      <point x="180" y="1436" type="curve"/>
    </contour>
    <contour>
      <point x="356" y="1321" type="line"/>
      <point x="873" y="1353"/>
      <point x="980" y="1296"/>
      <point x="980" y="1089" type="curve" smooth="yes"/>
      <point x="980" y="886"/>
      <point x="823" y="854"/>
      <point x="633" y="854" type="curve" smooth="yes"/>
      <point x="356" y="854" type="line"/>
    </contour>
    <contour>
      <point x="356" y="728" type="line"/>
      <point x="622" y="728" type="line" smooth="yes"/>
      <point x="904" y="728"/>
      <point x="1023" y="633"/>
      <point x="1023" y="422" type="curve" smooth="yes"/>
      <point x="1023" y="235"/>
      <point x="967" y="98"/>
      <point x="356" y="143" type="curve"/>
    </contour>
    <contour>
      <point x="697.0" y="0.296939945458" type="move" name="bot"/>
    </contour>
    <contour>
      <point x="634.0" y="1496.79693995" type="move" name="top"/>
    </contour>
  </outline>
</glyph>
<glyph name="C" format="1">
  <advance width="1299"/>
  <unicode hex="0043"/>
  <outline>
    <contour>
      <point x="751" y="-20" type="curve" smooth="yes"/>
      <point x="975" y="-17"/>
      <point x="1179" y="116"/>
      <point x="1213" y="325" type="curve"/>
      <point x="1087" y="368" type="line"/>
      <point x="1052" y="233"/>
      <point x="931" y="128"/>
      <point x="757" y="123" type="curve" smooth="yes"/>
      <point x="435" y="114"/>
      <point x="290" y="364"/>
      <point x="290" y="734" type="curve" smooth="yes"/>
      <point x="290" y="1100"/>
      <point x="440" y="1347"/>
      <point x="774" y="1334" type="curve" smooth="yes"/>
      <point x="906" y="1329"/>
      <point x="1044" y="1245"/>
      <point x="1076" y="1087" type="curve"/>
      <point x="1212" y="1134" type="line"/>
      <point x="1172" y="1383"/>
      <point x="930" y="1471"/>
      <point x="759" y="1477" type="curve" smooth="yes"/>
      <point x="359" y="1492"/>
      <point x="113" y="1184"/>
      <point x="113" y="734" type="curve" smooth="yes"/>
      <point x="113" y="261"/>
      <point x="345" y="-25"/>
    </contour>
    <contour>
      <point x="817.0" y="0.5" type="move" name="bot"/>
    </contour>
    <contour>
      <point x="795" y="1461" type="move" name="top"/>
    </contour>
  </outline>
</glyph>
<glyph name="D" format="1">
  <advance width="1412"/>
  <unicode hex="0044"/>
  <outline>
    <contour>
      <point x="180" y="11" type="line"/>
      <point x="1091" y="-66"/>
      <point x="1308" y="230"/>
      <point x="1308" y="744" type="curve" smooth="yes"/>
      <point x="1308" y="1251"/>
      <point x="1110" y="1541"/>
      <point x="180" y="1434" type="curve"/>
    </contour>
    <contour>
      <point x="356" y="1318" type="line"/>
      <point x="945" y="1366"/>
      <point x="1132" y="1213"/>
      <point x="1132" y="739" type="curve" smooth="yes"/>
      <point x="1132" y="326"/>
      <point x="960" y="97"/>
      <point x="356" y="147" type="curve"/>
    </contour>
    <contour>
      <point x="753.0" y="-0.744995363679" type="move" name="bot"/>
    </contour>
    <contour>
      <point x="706.0" y="1496.78000464" type="move" name="top"/>
    </contour>
    <contour>
      <point x="269.0" y="769.030004636" type="move" name="mid"/>
    </contour>
  </outline>
</glyph>
<glyph name="E" format="1">
  <advance width="1197"/>
  <unicode hex="0045"/>
  <outline>
    <contour>
      <point x="180" y="0" type="line"/>
      <point x="1134" y="0" type="line"/>
      <point x="1146" y="137" type="line"/>
      <point x="297" y="137" type="line"/>
      <point x="356" y="67" type="line"/>
      <point x="356" y="741" type="line"/>
      <point x="297" y="686" type="line"/>
      <point x="1063" y="686" type="line"/>
      <point x="1063" y="822" type="line"/>
      <point x="297" y="822" type="line"/>
      <point x="356" y="775" type="line"/>
      <point x="356" y="1374" type="line"/>
      <point x="297" y="1321" type="line"/>
      <point x="1125" y="1321" type="line"/>
      <point x="1131" y="1456" type="line"/>
      <point x="180" y="1456" type="line"/>
    </contour>
    <contour>
      <point x="857.0" y="0.0" type="move" name="ogonek"/>
    </contour>
    <contour>
      <point x="647.0" y="0.0" type="move" name="bot"/>
    </contour>
    <contour>
      <point x="625.0" y="1496.5" type="move" name="top"/>
    </contour>
  </outline>
</glyph>
<glyph name="F" format="1">
  <advance width="1185"/>
  <unicode hex="0046"/>
  <outline>
    <contour>
      <point x="172" y="0" type="line"/>
      <point x="348" y="0" type="line"/>
      <point x="348" y="718" type="line"/>
      <point x="266" y="666" type="line"/>
      <point x="1030" y="666" type="line"/>
      <point x="1030" y="797" type="line"/>
      <point x="273" y="797" type="line"/>
      <point x="348" y="748" type="line"/>
      <point x="348" y="1385" type="line"/>
      <point x="273" y="1318" type="line"/>
      <point x="1125" y="1318" type="line"/>
      <point x="1135" y="1456" type="line"/>
      <point x="172" y="1456" type="line"/>
    </contour>
    <contour>
      <point x="626.0" y="1496.5" type="move" name="top"/>
    </contour>
  </outline>
</glyph>
<glyph name="G" format="1">
  <advance width="1439"/>
  <unicode hex="0047"/>
  <outline>
    <contour>
      <point x="794" y="-20" type="curve" smooth="yes"/>
      <point x="990" y="-20"/>
      <point x="1145" y="14"/>
      <point x="1292" y="72" type="curve"/>
      <point x="1292" y="764" type="line"/>
      <point x="811" y="764" type="line"/>
      <point x="804" y="621" type="line"/>
      <point x="1129" y="621" type="line"/>
      <point x="1129" y="168" type="line"/>
      <point x="1061" y="146"/>
      <point x="956" y="123"/>
      <point x="825" y="123" type="curve" smooth="yes"/>
      <point x="440" y="123"/>
      <point x="287" y="369"/>
      <point x="287" y="738" type="curve" smooth="yes"/>
      <point x="287" y="1091"/>
      <point x="484" y="1334"/>
      <point x="826" y="1334" type="curve" smooth="yes"/>
      <point x="1016" y="1334"/>
      <point x="1128" y="1279"/>
      <point x="1202" y="1237" type="curve"/>
      <point x="1255" y="1367" type="line"/>
      <point x="1127" y="1446"/>
      <point x="991" y="1477"/>
      <point x="823" y="1477" type="curve" smooth="yes"/>
      <point x="384" y="1477"/>
      <point x="110" y="1176"/>
      <point x="110" y="737" type="curve" smooth="yes"/>
      <point x="110" y="303"/>
      <point x="345" y="-20"/>
    </contour>
    <contour>
      <point x="821.0" y="0.5" type="move" name="bot"/>
    </contour>
    <contour>
      <point x="826.0" y="1497.0" type="move" name="top"/>
    </contour>
  </outline>
</glyph>
<glyph name="H" format="1">
  <advance width="1461"/>
  <unicode hex="0048"/>
  <outline>
    <contour>
      <point x="180" y="0" type="line"/>
      <point x="356" y="0" type="line"/>
      <point x="356" y="723" type="line"/>
      <point x="296" y="678" type="line"/>
      <point x="1156" y="678" type="line"/>
      <point x="1105" y="723" type="line"/>
      <point x="1105" y="0" type="line"/>
      <point x="1281" y="0" type="line"/>
      <point x="1281" y="1456" type="line"/>
      <point x="1105" y="1456" type="line"/>
      <point x="1105" y="780" type="line"/>
      <point x="1155" y="820" type="line"/>
      <point x="291" y="820" type="line"/>
      <point x="356" y="780" type="line"/>
      <point x="356" y="1456" type="line"/>
      <point x="180" y="1456" type="line"/>
    </contour>
    <contour>
      <point x="741.0" y="1496.5" type="move" name="top"/>
    </contour>
    <contour>
      <point x="738.0" y="1206.425" type="move" name="mid"/>
    </contour>
  </outline>
</glyph>
<glyph name="I" format="1">
  <advance width="818"/>
  <unicode hex="0049"/>
  <outline>
    <contour>
      <point x="130" y="1456" type="line"/>
      <point x="130" y="1347" type="line"/>
      <point x="362" y="1347" type="line"/>
      <point x="322" y="1401" type="line"/>
      <point x="322" y="58" type="line"/>
      <point x="362" y="110" type="line"/>
      <point x="130" y="110" type="line"/>
      <point x="130" y="0" type="line"/>
      <point x="688" y="0" type="line"/>
      <point x="688" y="110" type="line"/>
      <point x="458" y="110" type="line"/>
      <point x="498" y="56" type="line"/>
      <point x="498" y="1402" type="line"/>
      <point x="458" y="1347" type="line"/>
      <point x="688" y="1347" type="line"/>
      <point x="688" y="1456" type="line"/>
    </contour>
    <contour>
      <point x="411.0" y="0.0" type="move" name="bot"/>
    </contour>
    <contour>
      <point x="410" y="1456" type="move" name="top"/>
    </contour>
  </outline>
</glyph>
<glyph name="K" format="1">
  <advance width="1317"/>
  <unicode hex="004B"/>
  <outline>
    <contour>
      <point x="180" y="0" type="line"/>
      <point x="356" y="0" type="line"/>
      <point x="356" y="583" type="line"/>
      <point x="534" y="748" type="line"/>
      <point x="1106" y="0" type="line"/>
      <point x="1312" y="0" type="line"/>
      <point x="666" y="840" type="line"/>
      <point x="1282" y="1456" type="line"/>
      <point x="1076" y="1456" type="line"/>
      <point x="356" y="747" type="line"/>
      <point x="356" y="1456" type="line"/>
      <point x="180" y="1456" type="line"/>
    </contour>
    <contour>
      <point x="657.0" y="0.0" type="move" name="bot"/>
    </contour>
    <contour>
      <point x="654.0" y="1496.5" type="move" name="top"/>
    </contour>
  </outline>
</glyph>
<glyph name="M" format="1">
  <advance width="1800"/>
  <unicode hex="004D"/>
  <outline>
    <contour>
      <point x="172" y="0" type="line"/>
      <point x="338" y="0" type="line"/>
      <point x="364" y="924" type="line"/>
      <point x="364" y="1314" type="line"/>
      <point x="334" y="1304" type="line"/>
      <point x="824" y="167" type="line"/>
      <point x="975" y="167" type="line"/>
      <point x="1474" y="1303" type="line"/>
      <point x="1438" y="1315" type="line"/>
      <point x="1438" y="928" type="line"/>
      <point x="1464" y="0" type="line"/>
      <point x="1628" y="0" type="line"/>
      <point x="1587" y="1456" type="line"/>
      <point x="1377" y="1456" type="line"/>
      <point x="879" y="318" type="line"/>
      <point x="923" y="318" type="line"/>
      <point x="429" y="1456" type="line"/>
      <point x="213" y="1456" type="line"/>
    </contour>
    <contour>
      <point x="915.0" y="1496.5" type="move" name="top"/>
    </contour>
  </outline>
</glyph>
<glyph name="N" format="1">
  <advance width="1461"/>
  <unicode hex="004E"/>
  <outline>
    <contour>
      <point x="180" y="0" type="line"/>
      <point x="343" y="0" type="line"/>
      <point x="343" y="761" type="line"/>
      <point x="324" y="1312" type="line"/>
      <point x="282" y="1298" type="line"/>
      <point x="1100" y="0" type="line"/>
      <point x="1281" y="0" type="line"/>
      <point x="1281" y="1456" type="line"/>
      <point x="1119" y="1456" type="line"/>
      <point x="1119" y="644" type="line"/>
      <point x="1131" y="145" type="line"/>
      <point x="1166" y="160" type="line"/>
      <point x="354" y="1456" type="line"/>
      <point x="180" y="1456" type="line"/>
    </contour>
    <contour>
      <point x="788.0" y="1496.5" type="move" name="top"/>
    </contour>
  </outline>
</glyph>
<glyph name="O" format="1">
  <advance width="1523"/>
  <unicode hex="004F"/>
  <outline>
    <contour>
      <point x="762" y="122" type="curve" smooth="yes"/>
      <point x="412" y="122"/>
      <point x="290" y="365"/>
      <point x="290" y="720" type="curve" smooth="yes"/>
      <point x="290" y="1091"/>
      <point x="424" y="1334"/>
      <point x="764" y="1334" type="curve" smooth="yes"/>
      <point x="1105" y="1334"/>
      <point x="1233" y="1089"/>
      <point x="1233" y="720" type="curve" smooth="yes"/>
      <point x="1233" y="365"/>
      <point x="1112" y="122"/>
    </contour>
    <contour>
      <point x="764" y="-20" type="curve" smooth="yes"/>
      <point x="1206" y="-20"/>
      <point x="1409" y="275"/>
      <point x="1409" y="718" type="curve" smooth="yes"/>
      <point x="1409" y="1181"/>
      <point x="1194" y="1476"/>
      <point x="765" y="1476" type="curve" smooth="yes"/>
      <point x="327" y="1476"/>
      <point x="113" y="1184"/>
      <point x="113" y="721" type="curve" smooth="yes"/>
      <point x="113" y="269"/>
      <point x="317" y="-20"/>
    </contour>
    <contour>
      <point x="764.0" y="0.5" type="move" name="bot"/>
    </contour>
    <contour>
      <point x="770" y="1476" type="move" name="top"/>
    </contour>
  </outline>
</glyph>
<glyph name="P" format="1">
  <advance width="1241"/>
  <unicode hex="0050"/>
  <outline>
    <contour>
      <point x="180" y="0" type="line"/>
      <point x="356" y="0" type="line"/>
      <point x="356" y="639" type="line"/>
      <point x="1037" y="615"/>
      <point x="1157" y="808"/>
      <point x="1157" y="1068" type="curve" smooth="yes"/>
      <point x="1157" y="1416"/>
      <point x="975" y="1489"/>
      <point x="180" y="1445" type="curve"/>
    </contour>
    <contour>
      <point x="356" y="1315" type="line"/>
      <point x="874" y="1342"/>
      <point x="981" y="1290"/>
      <point x="981" y="1066" type="curve" smooth="yes"/>
      <point x="981" y="868"/>
      <point x="915" y="754"/>
      <point x="356" y="778" type="curve"/>
    </contour>
    <contour>
      <point x="655.0" y="1496.5" type="move" name="top"/>
    </contour>
  </outline>
</glyph>
<glyph name="Q" format="1">
  <advance width="1523"/>
  <unicode hex="0051"/>
  <outline>
    <contour>
      <point x="1260" y="-401" type="curve"/>
      <point x="1372" y="-301" type="line"/>
      <point x="1278" y="-201"/>
      <point x="1140" y="-19"/>
      <point x="1088" y="91" type="curve"/>
      <point x="940" y="62" type="line"/>
      <point x="1030" y="-120"/>
      <point x="1188" y="-331"/>
    </contour>
    <component base="O"/>
  </outline>
</glyph>
<glyph name="R" format="1">
  <advance width="1339"/>
  <unicode hex="0052"/>
  <outline>
    <contour>
      <point x="180" y="0" type="line"/>
      <point x="356" y="0" type="line"/>
      <point x="356" y="674" type="line"/>
      <point x="440" y="669"/>
      <point x="582" y="662"/>
      <point x="708" y="669" type="curve"/>
      <point x="1046" y="0" type="line"/>
      <point x="1243" y="0" type="line"/>
      <point x="1243" y="0"/>
      <point x="879" y="691"/>
      <point x="879" y="691" type="curve"/>
      <point x="1089" y="733"/>
      <point x="1203" y="850"/>
      <point x="1198" y="1086" type="curve" smooth="yes"/>
      <point x="1192" y="1346"/>
      <point x="1031" y="1456"/>
      <point x="577" y="1456" type="curve" smooth="yes"/>
      <point x="437" y="1456"/>
      <point x="313" y="1447"/>
      <point x="180" y="1432" type="curve"/>
    </contour>
    <contour>
      <point x="356" y="1316" type="line"/>
      <point x="385" y="1320"/>
      <point x="505" y="1324"/>
      <point x="573" y="1324" type="curve"/>
      <point x="928" y="1324"/>
      <point x="1039" y="1254"/>
      <point x="1040" y="1077" type="curve" smooth="yes"/>
      <point x="1042" y="816"/>
      <point x="903" y="771"/>
      <point x="356" y="802" type="curve"/>
    </contour>
    <contour>
      <point x="687.0" y="0.0" type="move" name="bot"/>
    </contour>
    <contour>
      <point x="732.0" y="1496.5" type="move" name="top"/>
    </contour>
  </outline>
</glyph>
<glyph name="S" format="1">
  <advance width="1232.97632686"/>
  <unicode hex="0053"/>
  <outline>
    <contour>
      <point x="953" y="369" type="curve" smooth="yes"/>
      <point x="947" y="184"/>
      <point x="801" y="123"/>
      <point x="616" y="123" type="curve" smooth="yes"/>
      <point x="490" y="123"/>
      <point x="325" y="171"/>
      <point x="241" y="316" type="curve"/>
      <point x="127.362464767" y="243" type="line"/>
      <point x="163.362464767" y="123"/>
      <point x="337.362464767" y="-20"/>
      <point x="619.362464767" y="-20" type="curve" smooth="yes"/>
      <point x="854.362464767" y="-20"/>
      <point x="1115" y="72"/>
      <point x="1118" y="374" type="curve" smooth="yes"/>
      <point x="1121" y="709"/>
      <point x="902.362464767" y="734"/>
      <point x="517.362464767" y="892" type="curve" smooth="yes"/>
      <point x="385.362464767" y="945"/>
      <point x="306" y="983"/>
      <point x="317" y="1120" type="curve" smooth="yes"/>
      <point x="331" y="1297"/>
      <point x="465.362464767" y="1334"/>
      <point x="639.362464767" y="1334" type="curve" smooth="yes"/>
      <point x="789.362464767" y="1334"/>
      <point x="914" y="1252"/>
      <point x="966" y="1146" type="curve"/>
      <point x="1086.36246477" y="1227" type="line"/>
      <point x="998.362464767" y="1402"/>
      <point x="828.362464767" y="1476"/>
      <point x="633.362464767" y="1476" type="curve" smooth="yes"/>
      <point x="390.362464767" y="1476"/>
      <point x="162.362464767" y="1399"/>
      <point x="144.362464767" y="1121" type="curve" smooth="yes"/>
      <point x="124.362464767" y="819"/>
      <point x="324.362464767" y="800"/>
      <point x="684.362464767" y="651" type="curve" smooth="yes"/>
      <point x="855.362464767" y="580"/>
      <point x="958" y="529"/>
    </contour>
    <contour>
      <point x="586.362464767" y="0.5" type="move" name="bot"/>
    </contour>
    <contour>
      <point x="609.362464767" y="1497.0" type="move" name="top"/>
    </contour>
  </outline>
</glyph>
<glyph name="T" format="1">
  <advance width="1200"/>
  <unicode hex="0054"/>
  <outline>
    <contour>
      <point x="511" y="0" type="line"/>
      <point x="687" y="0" type="line"/>
      <point x="687" y="1387" type="line"/>
      <point x="628" y="1319" type="line"/>
      <point x="1166" y="1319" type="line"/>
      <point x="1166" y="1456" type="line"/>
      <point x="34" y="1456" type="line"/>
      <point x="34" y="1319" type="line"/>
      <point x="565" y="1319" type="line"/>
      <point x="511" y="1384" type="line"/>
    </contour>
    <contour>
      <point x="604.0" y="0.0" type="move" name="bot"/>
    </contour>
    <contour>
      <point x="603.0" y="1496.5" type="move" name="top"/>
    </contour>
    <contour>
      <point x="596.0" y="785.15" type="move" name="mid"/>
    </contour>
  </outline>
</glyph>
<glyph name="U" format="1">
  <advance width="1385"/>
  <unicode hex="0055"/>
  <outline>
    <contour>
      <point x="695" y="-20" type="curve" smooth="yes"/>
      <point x="1079" y="-20"/>
      <point x="1243" y="217"/>
      <point x="1243" y="540" type="curve" smooth="yes"/>
      <point x="1243" y="1457" type="line"/>
      <point x="1067" y="1457" type="line"/>
      <point x="1067" y="546" type="line" smooth="yes"/>
      <point x="1067" y="271"/>
      <point x="958" y="123"/>
      <point x="695" y="123" type="curve" smooth="yes"/>
      <point x="423" y="123"/>
      <point x="323" y="271"/>
      <point x="323" y="546" type="curve" smooth="yes"/>
      <point x="323" y="1457" type="line"/>
      <point x="147" y="1457" type="line"/>
      <point x="147" y="543" type="line" smooth="yes"/>
      <point x="147" y="211"/>
      <point x="307" y="-20"/>
    </contour>
    <contour>
      <point x="840.0" y="21.0" type="move" name="ogonek"/>
    </contour>
    <contour>
      <point x="692.0" y="0.5" type="move" name="bot"/>
    </contour>
    <contour>
      <point x="707.0" y="1497.0" type="move" name="top"/>
    </contour>
  </outline>
</glyph>
<glyph name="V" format="1">
  <advance width="1296"/>
  <unicode hex="0056"/>
  <outline>
    <contour>
      <point x="571" y="0" type="line"/>
      <point x="725" y="0" type="line"/>
      <point x="1274" y="1456" type="line"/>
      <point x="1093" y="1456" type="line"/>
      <point x="649" y="220" type="line"/>
      <point x="204" y="1456" type="line"/>
      <point x="22" y="1456" type="line"/>
    </contour>
  </outline>
</glyph>
<glyph name="W" format="1">
  <advance width="1807"/>
  <unicode hex="0057"/>
  <outline>
    <contour>
      <point x="399" y="0" type="line"/>
      <point x="566" y="0" type="line"/>
      <point x="908" y="1209" type="line"/>
      <point x="1237" y="0" type="line"/>
      <point x="1408" y="0" type="line"/>
      <point x="1741" y="1456" type="line"/>
      <point x="1571" y="1456" type="line"/>
      <point x="1321" y="230" type="line"/>
      <point x="991" y="1425" type="line"/>
      <point x="821" y="1425" type="line"/>
      <point x="486" y="229" type="line"/>
      <point x="221" y="1456" type="line"/>
      <point x="54" y="1456" type="line"/>
    </contour>
    <contour>
      <point x="905.0" y="0.0" type="move" name="bot"/>
    </contour>
    <contour>
      <point x="902.0" y="1496.5" type="move" name="top"/>
    </contour>
  </outline>
</glyph>
<glyph name="X" format="1">
  <advance width="1295"/>
  <unicode hex="0058"/>
  <outline>
    <contour>
      <point x="1039" y="0" type="line"/>
      <point x="1238" y="0" type="line"/>
      <point x="752" y="730" type="line"/>
      <point x="1231" y="1456" type="line"/>
      <point x="1043" y="1456" type="line"/>
      <point x="664" y="873" type="line"/>
      <point x="269" y="1456" type="line"/>
      <point x="68" y="1456" type="line"/>
      <point x="552" y="730" type="line"/>
      <point x="66" y="0" type="line"/>
      <point x="252" y="0" type="line"/>
      <point x="644" y="584" type="line"/>
    </contour>
  </outline>
</glyph>
<glyph name="Y" format="1">
  <advance width="1250"/>
  <unicode hex="0059"/>
  <outline>
    <contour>
      <point x="545" y="0" type="line"/>
      <point x="721" y="0" type="line"/>
      <point x="721" y="566" type="line"/>
      <point x="686" y="443" type="line"/>
      <point x="1230" y="1456" type="line"/>
      <point x="1056" y="1456" type="line"/>
      <point x="605" y="608" type="line"/>
      <point x="661" y="608" type="line"/>
      <point x="194" y="1456" type="line"/>
      <point x="20" y="1456" type="line"/>
      <point x="584" y="441" type="line"/>
      <point x="545" y="568" type="line"/>
    </contour>
    <contour>
      <point x="632.0" y="1496.5" type="move" name="top"/>
    </contour>
  </outline>
</glyph>
<glyph name="Z" format="1">
  <advance width="1225"/>
  <unicode hex="005A"/>
  <outline>
    <contour>
      <point x="97" y="0" type="line"/>
      <point x="1125" y="0" type="line"/>
      <point x="1133" y="137" type="line"/>
      <point x="238" y="137" type="line"/>
      <point x="262" y="86" type="line"/>
      <point x="1126" y="1332" type="line"/>
      <point x="1119" y="1456" type="line"/>
      <point x="130" y="1456" type="line"/>
      <point x="130" y="1321" type="line"/>
      <point x="997" y="1321" type="line"/>
      <point x="968" y="1378" type="line"/>
      <point x="97" y="127" type="line"/>
    </contour>
    <contour>
      <point x="661" y="0" type="move" name="bot"/>
    </contour>
    <contour>
      <point x="675" y="1456" type="move" name="top"/>
    </contour>
  </outline>
</glyph>
<glyph name="asciicircum" format="1">
  <advance width="775"/>
  <unicode hex="005E"/>
  <unicode hex="0302"/>
  <outline>
    <contour>
      <point x="108" y="1087" type="line"/>
      <point x="219" y="1087" type="line"/>
      <point x="377" y="1368" type="line"/>
      <point x="531" y="1087" type="line"/>
      <point x="643" y="1087" type="line"/>
      <point x="475" y="1469" type="line"/>
      <point x="288" y="1469" type="line"/>
    </contour>
  </outline>
</glyph>
<glyph name="a" format="1">
  <advance width="1093.0"/>
  <unicode hex="0061"/>
  <outline>
    <contour>
      <point x="786" y="282" type="line"/>
      <point x="707" y="161"/>
      <point x="579" y="104"/>
      <point x="435" y="104" type="curve" smooth="yes"/>
      <point x="342" y="104"/>
      <point x="264" y="167"/>
      <point x="264" y="292" type="curve" smooth="yes"/>
      <point x="264" y="415"/>
      <point x="331" y="494"/>
      <point x="561" y="494" type="curve" smooth="yes"/>
      <point x="617" y="494"/>
      <point x="709" y="489"/>
      <point x="786" y="479" type="curve"/>
    </contour>
    <contour>
      <point x="786" y="593" type="line"/>
      <point x="708" y="603"/>
      <point x="607" y="607"/>
      <point x="545" y="607" type="curve" smooth="yes"/>
      <point x="226" y="607"/>
      <point x="106" y="482"/>
      <point x="106" y="293" type="curve" smooth="yes"/>
      <point x="106" y="92"/>
      <point x="236" y="-20"/>
      <point x="427" y="-20" type="curve" smooth="yes"/>
      <point x="549" y="-20"/>
      <point x="700" y="18"/>
      <point x="806" y="151" type="curve"/>
      <point x="824" y="1" type="line"/>
      <point x="950" y="1" type="line"/>
      <point x="950" y="717" type="line" smooth="yes"/>
      <point x="950" y="1006"/>
      <point x="784" y="1106"/>
      <point x="543" y="1106" type="curve" smooth="yes"/>
      <point x="378" y="1106"/>
      <point x="213" y="1032"/>
      <point x="152" y="884" type="curve"/>
      <point x="273" y="835" type="line"/>
      <point x="327" y="927"/>
      <point x="437" y="980"/>
      <point x="541" y="980" type="curve" smooth="yes"/>
      <point x="704" y="980"/>
      <point x="786" y="898"/>
      <point x="786" y="742" type="curve" smooth="yes"/>
    </contour>
    <contour>
      <point x="552.0" y="1082.9" type="move" name="top"/>
    </contour>
    <contour>
      <point x="889.0" y="0.5" type="move" name="ogonek"/>
    </contour>
    <contour>
      <point x="475.0" y="0.5" type="move" name="bot"/>
    </contour>
  </outline>
</glyph>
<glyph name="b" format="1">
  <advance width="1164"/>
  <unicode hex="0062"/>
  <outline>
    <contour>
      <point x="608" y="110" type="curve" smooth="yes"/>
      <point x="410" y="110"/>
      <point x="300" y="261"/>
      <point x="300" y="559" type="curve" smooth="yes"/>
      <point x="300" y="812"/>
      <point x="391" y="978"/>
      <point x="618" y="978" type="curve" smooth="yes"/>
      <point x="833" y="978"/>
      <point x="897" y="799"/>
      <point x="897" y="542" type="curve" smooth="yes"/>
      <point x="897" y="275"/>
      <point x="820" y="110"/>
    </contour>
    <contour>
      <point x="624" y="-20" type="curve" smooth="yes"/>
      <point x="919" y="-20"/>
      <point x="1067" y="204"/>
      <point x="1067" y="542" type="curve" smooth="yes"/>
      <point x="1067" y="880"/>
      <point x="931" y="1108"/>
      <point x="632" y="1108" type="curve" smooth="yes"/>
      <point x="479" y="1108"/>
      <point x="376" y="1029"/>
      <point x="302" y="910" type="curve"/>
      <point x="307" y="1105" type="line"/>
      <point x="307" y="1560" type="line"/>
      <point x="143" y="1548" type="line"/>
      <point x="143" y="1" type="line"/>
      <point x="274" y="1" type="line"/>
      <point x="289" y="194" type="line"/>
      <point x="351" y="90"/>
      <point x="454" y="-20"/>
    </contour>
  </outline>
</glyph>
<glyph name="c" format="1">
  <advance width="1037"/>
  <unicode hex="0063"/>
  <outline>
    <contour>
      <point x="348" y="106"/>
      <point x="267" y="285"/>
      <point x="267" y="543" type="curve" smooth="yes"/>
      <point x="267" y="825"/>
      <point x="379" y="978"/>
      <point x="587" y="980" type="curve" smooth="yes"/>
      <point x="761" y="982"/>
      <point x="823" y="868"/>
      <point x="849" y="771" type="curve"/>
      <point x="963" y="824" type="line"/>
      <point x="949" y="922"/>
      <point x="862" y="1105"/>
      <point x="593" y="1106" type="curve" smooth="yes"/>
      <point x="370" y="1107"/>
      <point x="97" y="974"/>
      <point x="97" y="538" type="curve" smooth="yes"/>
      <point x="97" y="200"/>
      <point x="281" y="-20"/>
      <point x="577" y="-20" type="curve" smooth="yes"/>
      <point x="818" y="-20"/>
      <point x="940" y="131"/>
      <point x="961" y="243" type="curve"/>
      <point x="856" y="293" type="line"/>
      <point x="821" y="187"/>
      <point x="751" y="106"/>
      <point x="583" y="106" type="curve" smooth="yes"/>
    </contour>
    <contour>
      <point x="594" y="1083" type="move" name="top"/>
    </contour>
    <contour>
      <point x="613" y="1" type="move" name="bot"/>
    </contour>
  </outline>
</glyph>
<glyph name="d" format="1">
  <advance width="1164"/>
  <unicode hex="0064"/>
  <outline>
    <contour>
      <point x="556" y="109" type="curve" smooth="yes"/>
      <point x="340" y="109"/>
      <point x="266" y="290"/>
      <point x="266" y="548" type="curve" smooth="yes"/>
      <point x="266" y="817"/>
      <point x="355" y="978"/>
      <point x="565" y="978" type="curve" smooth="yes"/>
      <point x="764" y="978"/>
      <point x="856" y="826"/>
      <point x="856" y="531" type="curve" smooth="yes"/>
      <point x="855" y="278"/>
      <point x="785" y="109"/>
    </contour>
    <contour>
      <point x="857" y="909" type="line"/>
      <point x="798" y="1021"/>
      <point x="726" y="1108"/>
      <point x="541" y="1108" type="curve" smooth="yes"/>
      <point x="258" y="1108"/>
      <point x="98" y="879"/>
      <point x="98" y="551" type="curve" smooth="yes"/>
      <point x="98" y="208"/>
      <point x="245" y="-20"/>
      <point x="542" y="-20" type="curve" smooth="yes"/>
      <point x="725" y="-20"/>
      <point x="807" y="78"/>
      <point x="862" y="192" type="curve"/>
      <point x="877" y="1" type="line"/>
      <point x="1013" y="1" type="line"/>
      <point x="1013" y="1560" type="line"/>
      <point x="849" y="1548" type="line"/>
      <point x="849" y="1160" type="line"/>
    </contour>
    <contour>
      <point x="1244.0" y="1011.15" type="move" name="mid"/>
    </contour>
  </outline>
</glyph>
<glyph name="e" format="1">
  <advance width="1084"/>
  <unicode hex="0065"/>
  <outline>
    <contour>
      <point x="611" y="-20" type="curve" smooth="yes"/>
      <point x="760" y="-20"/>
      <point x="879" y="16"/>
      <point x="975" y="75" type="curve"/>
      <point x="940" y="195" type="line"/>
      <point x="846" y="145"/>
      <point x="746" y="106"/>
      <point x="629" y="106" type="curve" smooth="yes"/>
      <point x="440" y="106"/>
      <point x="279" y="228"/>
      <point x="268" y="516" type="curve"/>
      <point x="1000" y="516" type="line"/>
      <point x="1000" y="516"/>
      <point x="1006" y="576"/>
      <point x="1006" y="602" type="curve" smooth="yes"/>
      <point x="1006" y="914"/>
      <point x="854" y="1106"/>
      <point x="591" y="1106" type="curve" smooth="yes"/>
      <point x="323" y="1106"/>
      <point x="99" y="891"/>
      <point x="99" y="538" type="curve" smooth="yes"/>
      <point x="99" y="190"/>
      <point x="324" y="-20"/>
    </contour>
    <contour>
      <point x="865" y="627" type="curve"/>
      <point x="273" y="627" type="line"/>
      <point x="292" y="843"/>
      <point x="428" y="980"/>
      <point x="595" y="980" type="curve" smooth="yes"/>
      <point x="759" y="980"/>
      <point x="857" y="857"/>
    </contour>
    <contour>
      <point x="890.0" y="53.8" type="move" name="ogonek"/>
    </contour>
    <contour>
      <point x="603.0" y="0.5" type="move" name="bot"/>
    </contour>
    <contour>
      <point x="570.0" y="1082.9" type="move" name="top"/>
    </contour>
  </outline>
</glyph>
<glyph name="f" format="1">
  <advance width="699"/>
  <unicode hex="0066"/>
  <outline>
    <contour>
      <point x="250" y="0" type="line"/>
      <point x="414" y="0" type="line"/>
      <point x="414" y="1020" type="line"/>
      <point x="382" y="980" type="line"/>
      <point x="689" y="980" type="line"/>
      <point x="689" y="1082" type="line"/>
      <point x="378" y="1082" type="line"/>
      <point x="414" y="1045" type="line"/>
      <point x="414" y="1162" type="line" smooth="yes"/>
      <point x="414" y="1367"/>
      <point x="490" y="1392"/>
      <point x="591" y="1392" type="curve" smooth="yes"/>
      <point x="637" y="1392"/>
      <point x="683" y="1384"/>
      <point x="693" y="1382" type="curve"/>
      <point x="705" y="1500" type="line"/>
      <point x="684" y="1504"/>
      <point x="635" y="1517"/>
      <point x="561" y="1517" type="curve" smooth="yes"/>
      <point x="376" y="1517"/>
      <point x="250" y="1427"/>
      <point x="250" y="1152" type="curve" smooth="yes"/>
      <point x="250" y="1047" type="line"/>
      <point x="290" y="1082" type="line"/>
      <point x="61" y="1066" type="line"/>
      <point x="56" y="980" type="line"/>
      <point x="290" y="980" type="line"/>
      <point x="250" y="1019" type="line"/>
    </contour>
  </outline>
</glyph>
<glyph name="g" format="1">
  <advance width="1165"/>
  <unicode hex="0067"/>
  <outline>
    <contour>
      <point x="858" y="57" type="line" smooth="yes"/>
      <point x="845" y="-221"/>
      <point x="765" y="-304"/>
      <point x="543" y="-304" type="curve" smooth="yes"/>
      <point x="407" y="-304"/>
      <point x="325" y="-277"/>
      <point x="232" y="-247" type="curve"/>
      <point x="219" y="-380" type="line"/>
      <point x="312" y="-410"/>
      <point x="422" y="-437"/>
      <point x="543" y="-437" type="curve" smooth="yes"/>
      <point x="901" y="-437"/>
      <point x="1022" y="-258"/>
      <point x="1022" y="105" type="curve" smooth="yes"/>
      <point x="1022" y="1082" type="line"/>
      <point x="886" y="1082" type="line"/>
      <point x="869" y="894" type="line"/>
      <point x="798" y="1023"/>
      <point x="694" y="1106"/>
      <point x="533" y="1106" type="curve" smooth="yes"/>
      <point x="240" y="1106"/>
      <point x="101" y="877"/>
      <point x="101" y="538" type="curve" smooth="yes"/>
      <point x="101" y="209"/>
      <point x="253" y="-7"/>
      <point x="536" y="-7" type="curve" smooth="yes"/>
      <point x="705" y="-7"/>
      <point x="802" y="72"/>
      <point x="865" y="189" type="curve"/>
    </contour>
    <contour>
      <point x="562" y="123" type="curve" smooth="yes"/>
      <point x="352" y="123"/>
      <point x="271" y="277"/>
      <point x="271" y="540" type="curve" smooth="yes"/>
      <point x="271" y="790"/>
      <point x="338" y="980"/>
      <point x="552" y="980" type="curve" smooth="yes"/>
      <point x="779" y="980"/>
      <point x="864" y="808"/>
      <point x="865" y="558" type="curve"/>
      <point x="865" y="275"/>
      <point x="763" y="123"/>
    </contour>
    <contour>
      <point x="542.0" y="1094.4" type="move" name="top"/>
    </contour>
    <contour>
      <point x="540.0" y="-475.9" type="move" name="bot"/>
    </contour>
  </outline>
</glyph>
<glyph name="h" format="1">
  <advance width="1164"/>
  <unicode hex="0068"/>
  <outline>
    <contour>
      <point x="143" y="0" type="line"/>
      <point x="306" y="0" type="line"/>
      <point x="306" y="593" type="line" smooth="yes"/>
      <point x="306" y="782"/>
      <point x="382" y="980"/>
      <point x="636" y="980" type="curve" smooth="yes"/>
      <point x="798" y="980"/>
      <point x="858" y="873"/>
      <point x="858" y="664" type="curve" smooth="yes"/>
      <point x="858" y="0" type="line"/>
      <point x="1024" y="0" type="line"/>
      <point x="1024" y="670" type="line" smooth="yes"/>
      <point x="1024" y="948"/>
      <point x="895" y="1106"/>
      <point x="663" y="1106" type="curve" smooth="yes"/>
      <point x="513" y="1106"/>
      <point x="377" y="1048"/>
      <point x="301" y="928" type="curve"/>
      <point x="307" y="1146" type="line"/>
      <point x="307" y="1560" type="line"/>
      <point x="143" y="1547" type="line"/>
    </contour>
    <contour>
      <point x="652.0" y="1383.75" type="move" name="top"/>
    </contour>
    <contour>
      <point x="225.0" y="1284.325" type="move" name="mid"/>
    </contour>
  </outline>
</glyph>
<glyph name="i" format="1">
  <advance width="537"/>
  <unicode hex="0069"/>
  <outline>
    <contour>
      <point x="268" y="1496" type="curve" smooth="yes"/>
      <point x="331" y="1496"/>
      <point x="377" y="1452"/>
      <point x="377" y="1388" type="curve" smooth="yes"/>
      <point x="377" y="1323"/>
      <point x="331" y="1278"/>
      <point x="268" y="1278" type="curve" smooth="yes"/>
      <point x="204" y="1278"/>
      <point x="159" y="1323"/>
      <point x="159" y="1388" type="curve" smooth="yes"/>
      <point x="159" y="1452"/>
      <point x="204" y="1496"/>
    </contour>
    <contour>
      <point x="185" y="0" type="line"/>
      <point x="349" y="0" type="line"/>
      <point x="349" y="1082" type="line"/>
      <point x="185" y="1082" type="line"/>
    </contour>
    <contour>
      <point x="267.0" y="0.0" type="move" name="bot"/>
    </contour>
  </outline>
</glyph>
<glyph name="j" format="1">
  <advance width="502"/>
  <unicode hex="006A"/>
  <outline>
    <contour>
      <point x="230" y="1496" type="curve" smooth="yes"/>
      <point x="293" y="1496"/>
      <point x="338" y="1452"/>
      <point x="338" y="1388" type="curve" smooth="yes"/>
      <point x="338" y="1323"/>
      <point x="293" y="1278"/>
      <point x="230" y="1278" type="curve" smooth="yes"/>
      <point x="166" y="1278"/>
      <point x="122" y="1323"/>
      <point x="122" y="1388" type="curve" smooth="yes"/>
      <point x="122" y="1452"/>
      <point x="166" y="1496"/>
    </contour>
    <contour>
      <point x="-47" y="-378" type="line"/>
      <point x="12" y="-371" type="line" smooth="yes"/>
      <point x="232" y="-344"/>
      <point x="312" y="-269"/>
      <point x="312" y="-10" type="curve" smooth="yes"/>
      <point x="312" y="1082" type="line"/>
      <point x="148" y="1082" type="line"/>
      <point x="148" y="21" type="line" smooth="yes"/>
      <point x="148" y="-169"/>
      <point x="145" y="-205"/>
      <point x="-4" y="-235" type="curve" smooth="yes"/>
      <point x="-66" y="-247" type="line"/>
    </contour>
  </outline>
</glyph>
<glyph name="k" format="1">
  <advance width="1050"/>
  <unicode hex="006B"/>
  <outline>
    <contour>
      <point x="144" y="0" type="line"/>
      <point x="308" y="0" type="line"/>
      <point x="308" y="397" type="line"/>
      <point x="437" y="507" type="line"/>
      <point x="857" y="0" type="line"/>
      <point x="1052" y="0" type="line"/>
      <point x="552" y="589" type="line"/>
      <point x="1014" y="1082" type="line"/>
      <point x="813" y="1082" type="line"/>
      <point x="302" y="534" type="line"/>
      <point x="308" y="757" type="line"/>
      <point x="308" y="1560" type="line"/>
      <point x="144" y="1547" type="line"/>
    </contour>
    <contour>
      <point x="563.0" y="0.0" type="move" name="bot"/>
    </contour>
  </outline>
</glyph>
<glyph name="l" format="1">
  <advance width="633"/>
  <unicode hex="006C"/>
  <outline>
    <contour>
      <point x="490" y="-8" type="curve" smooth="yes"/>
      <point x="549" y="-8" type="line"/>
      <point x="558" y="114" type="line"/>
      <point x="529" y="116" type="line" smooth="yes"/>
      <point x="356" y="123"/>
      <point x="323" y="138"/>
      <point x="323" y="310" type="curve" smooth="yes"/>
      <point x="323" y="1560" type="line"/>
      <point x="159" y="1548" type="line"/>
      <point x="159" y="311" type="line" smooth="yes"/>
      <point x="159" y="45"/>
      <point x="274" y="-8"/>
    </contour>
    <contour>
      <point x="325.0" y="0.2" type="move" name="bot"/>
    </contour>
    <contour>
      <point x="619.0" y="1083.625" type="move" name="mid"/>
    </contour>
    <contour>
      <point x="333.0" y="1496.7" type="move" name="top"/>
    </contour>
    <contour>
      <point x="239.0" y="918.6" type="move" name="mid2"/>
    </contour>
  </outline>
</glyph>
<glyph name="m" format="1">
  <advance width="1790"/>
  <unicode hex="006D"/>
  <outline>
    <contour>
      <point x="143" y="0" type="line"/>
      <point x="307" y="0" type="line"/>
      <point x="307" y="639" type="line"/>
      <point x="333" y="830"/>
      <point x="432" y="980"/>
      <point x="602" y="980" type="curve" smooth="yes"/>
      <point x="754" y="980"/>
      <point x="813" y="864"/>
      <point x="813" y="609" type="curve" smooth="yes"/>
      <point x="813" y="0" type="line"/>
      <point x="977" y="0" type="line"/>
      <point x="977" y="593" type="line" smooth="yes"/>
      <point x="977" y="870"/>
      <point x="1134.69213262" y="980.0"/>
      <point x="1278" y="980" type="curve" smooth="yes"/>
      <point x="1457" y="980"/>
      <point x="1483" y="801"/>
      <point x="1483" y="646" type="curve" smooth="yes"/>
      <point x="1483" y="0" type="line"/>
      <point x="1647" y="0" type="line"/>
      <point x="1647" y="699" type="line" smooth="yes"/>
      <point x="1647" y="965"/>
      <point x="1524" y="1106"/>
      <point x="1304" y="1106" type="curve" smooth="yes"/>
      <point x="1141" y="1106"/>
      <point x="997" y="1018"/>
      <point x="924" y="858" type="curve"/>
      <point x="949" y="862" type="line"/>
      <point x="900" y="1000"/>
      <point x="811" y="1106"/>
      <point x="629" y="1106" type="curve" smooth="yes"/>
      <point x="483" y="1106"/>
      <point x="359" y="1023"/>
      <point x="290" y="860" type="curve"/>
      <point x="308" y="850" type="line"/>
      <point x="285" y="1082" type="line"/>
      <point x="143" y="1082" type="line"/>
    </contour>
    <contour>
      <point x="923.0" y="1082.4" type="move" name="top"/>
    </contour>
  </outline>
</glyph>
<glyph name="n" format="1">
  <advance width="1164"/>
  <unicode hex="006E"/>
  <outline>
    <contour>
      <point x="143" y="0" type="line"/>
      <point x="307" y="0" type="line"/>
      <point x="307" y="607" type="line" smooth="yes"/>
      <point x="307" y="804"/>
      <point x="382" y="980"/>
      <point x="638" y="980" type="curve" smooth="yes"/>
      <point x="808" y="980"/>
      <point x="857" y="866"/>
      <point x="857" y="684" type="curve" smooth="yes"/>
      <point x="857" y="0" type="line"/>
      <point x="1021" y="0" type="line"/>
      <point x="1021" y="665" type="line" smooth="yes"/>
      <point x="1021" y="960"/>
      <point x="911" y="1106"/>
      <point x="667" y="1106" type="curve" smooth="yes"/>
      <point x="496" y="1106"/>
      <point x="376" y="1036"/>
      <point x="303" y="932" type="curve"/>
      <point x="285" y="1082" type="line"/>
      <point x="143" y="1082" type="line"/>
    </contour>
    <contour>
      <point x="651.0" y="1109.05" type="move" name="top"/>
    </contour>
    <contour>
      <point x="577.0" y="0.0" type="move" name="bot"/>
    </contour>
    <contour>
      <point x="113.0" y="1084.45" type="move" name="mid"/>
    </contour>
  </outline>
</glyph>
<glyph name="p" format="1">
  <advance width="1164"/>
  <unicode hex="0070"/>
  <outline>
    <contour>
      <point x="604" y="106" type="curve" smooth="yes"/>
      <point x="403" y="106"/>
      <point x="300" y="275"/>
      <point x="300" y="558" type="curve"/>
      <point x="301" y="808"/>
      <point x="390" y="980"/>
      <point x="617" y="980" type="curve" smooth="yes"/>
      <point x="831" y="980"/>
      <point x="895" y="791"/>
      <point x="895" y="541" type="curve" smooth="yes"/>
      <point x="895" y="277"/>
      <point x="814" y="106"/>
    </contour>
    <contour>
      <point x="143" y="-416" type="line"/>
      <point x="307" y="-416" type="line"/>
      <point x="307" y="-68" type="line"/>
      <point x="300" y="183" type="line"/>
      <point x="352" y="71"/>
      <point x="461" y="-20"/>
      <point x="630" y="-20" type="curve" smooth="yes"/>
      <point x="913" y="-20"/>
      <point x="1065" y="210"/>
      <point x="1065" y="539" type="curve" smooth="yes"/>
      <point x="1065" y="878"/>
      <point x="929" y="1106"/>
      <point x="636" y="1106" type="curve" smooth="yes"/>
      <point x="475" y="1106"/>
      <point x="367" y="1024"/>
      <point x="296" y="894" type="curve"/>
      <point x="279" y="1082" type="line"/>
      <point x="143" y="1082" type="line"/>
    </contour>
    <contour>
      <point x="641.0" y="1094.0" type="move" name="top"/>
    </contour>
  </outline>
</glyph>
<glyph name="q" format="1">
  <advance width="1164"/>
  <unicode hex="0071"/>
  <outline>
    <contour>
      <point x="547" y="106" type="curve" smooth="yes"/>
      <point x="337" y="106"/>
      <point x="268" y="277"/>
      <point x="268" y="541" type="curve" smooth="yes"/>
      <point x="268" y="791"/>
      <point x="323" y="980"/>
      <point x="537" y="980" type="curve" smooth="yes"/>
      <point x="764" y="980"/>
      <point x="844" y="808"/>
      <point x="845" y="558" type="curve"/>
      <point x="845" y="275"/>
      <point x="748" y="106"/>
    </contour>
    <contour>
      <point x="1002" y="-416" type="line"/>
      <point x="1002" y="1082" type="line"/>
      <point x="866" y="1082" type="line"/>
      <point x="849" y="894" type="line"/>
      <point x="778" y="1024"/>
      <point x="679" y="1106"/>
      <point x="518" y="1106" type="curve" smooth="yes"/>
      <point x="225" y="1106"/>
      <point x="98" y="878"/>
      <point x="98" y="539" type="curve" smooth="yes"/>
      <point x="98" y="210"/>
      <point x="238" y="-20"/>
      <point x="521" y="-20" type="curve" smooth="yes"/>
      <point x="690" y="-20"/>
      <point x="782" y="72"/>
      <point x="845" y="189" type="curve"/>
      <point x="838" y="-68" type="line"/>
      <point x="838" y="-416" type="line"/>
    </contour>
  </outline>
</glyph>
<glyph name="r" format="1">
  <advance width="702"/>
  <unicode hex="0072"/>
  <outline>
    <contour>
      <point x="143" y="0" type="line"/>
      <point x="307" y="0" type="line"/>
      <point x="307" y="614" type="line" smooth="yes"/>
      <point x="307" y="803"/>
      <point x="416" y="959"/>
      <point x="601" y="959" type="curve" smooth="yes"/>
      <point x="623" y="959"/>
      <point x="644" y="956"/>
      <point x="669" y="951" type="curve"/>
      <point x="682" y="1091" type="line"/>
      <point x="659" y="1095"/>
      <point x="638" y="1096"/>
      <point x="608" y="1096" type="curve" smooth="yes"/>
      <point x="490" y="1096"/>
      <point x="377" y="1034"/>
      <point x="292" y="869" type="curve"/>
      <point x="274" y="1082" type="line"/>
      <point x="143" y="1082" type="line"/>
    </contour>
    <contour>
      <point x="256.0" y="0.0" type="move" name="bot"/>
    </contour>
    <contour>
      <point x="436.0" y="1082.4" type="move" name="top"/>
    </contour>
  </outline>
</glyph>
<glyph name="s" format="1">
  <advance width="1013"/>
  <unicode hex="0073"/>
  <outline>
    <contour>
      <point x="530.0" y="980.0" type="curve" smooth="yes"/>
      <point x="694.0" y="980.0"/>
      <point x="755.0" y="886.0"/>
      <point x="770.0" y="803.0" type="curve"/>
      <point x="911.0" y="827.0" type="line"/>
      <point x="904.0" y="963.0"/>
      <point x="778.0" y="1106.0"/>
      <point x="525.0" y="1106.0" type="curve" smooth="yes"/>
      <point x="282.0" y="1106.0"/>
      <point x="122.0" y="992.0"/>
      <point x="122.0" y="814.0" type="curve" smooth="yes"/>
      <point x="122.0" y="691.0"/>
      <point x="151" y="592"/>
      <point x="484" y="490" type="curve" smooth="yes"/>
      <point x="697" y="429"/>
      <point x="738" y="380"/>
      <point x="738" y="283" type="curve" smooth="yes"/>
      <point x="738" y="168"/>
      <point x="659.0" y="106.0"/>
      <point x="523.0" y="106.0" type="curve" smooth="yes"/>
      <point x="410.0" y="106.0"/>
      <point x="290" y="142"/>
      <point x="238" y="272" type="curve"/>
      <point x="109.0" y="209.0" type="line"/>
      <point x="170" y="65"/>
      <point x="317.0" y="-20.0"/>
      <point x="522.0" y="-20.0" type="curve" smooth="yes"/>
      <point x="725.0" y="-20.0"/>
      <point x="894" y="80"/>
      <point x="894" y="291" type="curve" smooth="yes"/>
      <point x="894" y="424"/>
      <point x="871" y="529"/>
      <point x="532" y="634" type="curve" smooth="yes"/>
      <point x="336" y="695"/>
      <point x="279.0" y="729.0"/>
      <point x="279.0" y="819.0" type="curve" smooth="yes"/>
      <point x="279.0" y="920.0"/>
      <point x="356.0" y="980.0"/>
    </contour>
    <contour>
      <point x="488" y="1" type="move" name="bot"/>
    </contour>
    <contour>
      <point x="484" y="1083" type="move" name="top"/>
    </contour>
  </outline>
</glyph>
<glyph name="t" format="1">
  <advance width="708"/>
  <unicode hex="0074"/>
  <outline>
    <contour>
      <point x="541" y="-8" type="curve" smooth="yes"/>
      <point x="610" y="-8" type="line"/>
      <point x="618" y="109" type="line"/>
      <point x="534" y="113" type="line"/>
      <point x="369" y="113"/>
      <point x="370" y="150"/>
      <point x="370" y="325" type="curve" smooth="yes"/>
      <point x="370" y="980" type="line"/>
      <point x="608" y="980" type="line"/>
      <point x="608" y="1083" type="line"/>
      <point x="370" y="1083" type="line"/>
      <point x="370" y="1382" type="line"/>
      <point x="237" y="1372" type="line"/>
      <point x="210" y="1083" type="line"/>
      <point x="38" y="1073" type="line"/>
      <point x="34" y="980" type="line"/>
      <point x="206" y="980" type="line"/>
      <point x="206" y="325" type="line" smooth="yes"/>
      <point x="206" y="69"/>
      <point x="242" y="-8"/>
    </contour>
    <contour>
      <point x="443.83277592" y="0.2" type="move" name="bot"/>
    </contour>
    <contour>
      <point x="282.0" y="631.6" type="move" name="mid"/>
    </contour>
    <contour>
      <point x="296.0" y="1383.95" type="move" name="top"/>
    </contour>
  </outline>
</glyph>
<glyph name="u" format="1">
  <advance width="1164"/>
  <unicode hex="0075"/>
  <outline>
    <contour>
      <point x="1020" y="1083" type="line"/>
      <point x="856" y="1083" type="line"/>
      <point x="856" y="476" type="line" smooth="yes"/>
      <point x="856" y="269"/>
      <point x="776" y="107"/>
      <point x="539" y="107" type="curve" smooth="yes"/>
      <point x="369" y="107"/>
      <point x="303" y="222"/>
      <point x="303" y="404" type="curve" smooth="yes"/>
      <point x="303" y="1083" type="line"/>
      <point x="139" y="1083" type="line"/>
      <point x="139" y="423" type="line" smooth="yes"/>
      <point x="139" y="128"/>
      <point x="275" y="-20"/>
      <point x="519" y="-20" type="curve" smooth="yes"/>
      <point x="702" y="-20"/>
      <point x="785" y="47"/>
      <point x="861" y="163" type="curve"/>
      <point x="878" y="1" type="line"/>
      <point x="1020" y="1" type="line"/>
    </contour>
    <contour>
      <point x="952.0" y="0.5" type="move" name="ogonek"/>
    </contour>
    <contour>
      <point x="545.0" y="0.5" type="move" name="bot"/>
    </contour>
    <contour>
      <point x="602.0" y="1082.9" type="move" name="top"/>
    </contour>
  </outline>
</glyph>
<glyph name="v" format="1">
  <advance width="1030"/>
  <unicode hex="0076"/>
  <outline>
    <contour>
      <point x="440" y="0" type="line"/>
      <point x="607" y="0" type="line"/>
      <point x="996" y="1082" type="line"/>
      <point x="830" y="1082" type="line"/>
      <point x="524" y="189" type="line"/>
      <point x="214" y="1082" type="line"/>
      <point x="46" y="1082" type="line"/>
    </contour>
  </outline>
</glyph>
<glyph name="w" format="1">
  <advance width="1550"/>
  <unicode hex="0077"/>
  <outline>
    <contour>
      <point x="347" y="0" type="line"/>
      <point x="494" y="0" type="line"/>
      <point x="776" y="927" type="line"/>
      <point x="1070" y="0" type="line"/>
      <point x="1217" y="0" type="line"/>
      <point x="1500" y="1082" type="line"/>
      <point x="1348" y="1082" type="line"/>
      <point x="1139" y="211" type="line"/>
      <point x="863" y="1082" type="line"/>
      <point x="686" y="1082" type="line"/>
      <point x="426" y="208" type="line"/>
      <point x="202" y="1082" type="line"/>
      <point x="45" y="1082" type="line"/>
    </contour>
    <contour>
      <point x="777.0" y="1082.4" type="move" name="top"/>
    </contour>
  </outline>
</glyph>
<glyph name="x" format="1">
  <advance width="1030"/>
  <unicode hex="0078"/>
  <outline>
    <contour>
      <point x="795.0" y="0.0" type="line"/>
      <point x="980.0" y="0.0" type="line"/>
      <point x="253.0" y="1082.0" type="line"/>
      <point x="68.0" y="1082.0" type="line"/>
    </contour>
    <contour>
      <point x="596" y="531" type="line"/>
      <point x="977" y="1082" type="line"/>
      <point x="809" y="1082" type="line"/>
      <point x="516" y="646" type="line"/>
      <point x="432" y="557" type="line"/>
      <point x="46" y="0" type="line"/>
      <point x="213" y="0" type="line"/>
      <point x="507" y="436" type="line"/>
    </contour>
  </outline>
</glyph>
<glyph name="y" format="1">
  <advance width="1034"/>
  <unicode hex="0079"/>
  <outline>
    <contour>
      <point x="442" y="-410" type="line"/>
      <point x="1002" y="1082" type="line"/>
      <point x="834" y="1082" type="line"/>
      <point x="529" y="220" type="line"/>
      <point x="197" y="1082" type="line"/>
      <point x="28" y="1082" type="line"/>
      <point x="449" y="31" type="line"/>
      <point x="293" y="-377" type="line"/>
    </contour>
    <contour>
      <point x="527.0" y="1092.35" type="move" name="top"/>
    </contour>
  </outline>
</glyph>
<glyph name="z" format="1">
  <advance width="990"/>
  <unicode hex="007A"/>
  <outline>
    <contour>
      <point x="94" y="0" type="line"/>
      <point x="914" y="0" type="line"/>
      <point x="906" y="127" type="line"/>
      <point x="225" y="127" type="line"/>
      <point x="248" y="89" type="line"/>
      <point x="905" y="966" type="line"/>
      <point x="905" y="1082" type="line"/>
      <point x="115" y="1082" type="line"/>
      <point x="121" y="960" type="line"/>
      <point x="773" y="960" type="line"/>
      <point x="760" y="997" type="line"/>
      <point x="94" y="110" type="line"/>
    </contour>
    <contour>
      <point x="496.0" y="0.0" type="move" name="bot"/>
    </contour>
    <contour>
      <point x="499.0" y="1082.4" type="move" name="top"/>
    </contour>
  </outline>
</glyph>
<glyph name="sterling" format="1">
  <advance width="1194"/>
  <unicode hex="00A3"/>
  <outline>
    <contour>
      <point x="155" y="0" type="line"/>
      <point x="143" y="115" type="line"/>
      <point x="315" y="132" type="line"/>
      <point x="315" y="683" type="line"/>
      <point x="143" y="683" type="line"/>
      <point x="143" y="806" type="line"/>
      <point x="315" y="806" type="line"/>
      <point x="315" y="961" type="line" smooth="yes"/>
      <point x="315" y="1224"/>
      <point x="380" y="1517"/>
      <point x="733" y="1517" type="curve" smooth="yes"/>
      <point x="877" y="1517"/>
      <point x="989" y="1462"/>
      <point x="1074" y="1388" type="curve"/>
      <point x="1006" y="1270" type="line"/>
      <point x="920" y="1338"/>
      <point x="835" y="1375"/>
      <point x="733" y="1375" type="curve" smooth="yes"/>
      <point x="532" y="1375"/>
      <point x="491" y="1220"/>
      <point x="491" y="990" type="curve" smooth="yes"/>
      <point x="491" y="806" type="line"/>
      <point x="874" y="806" type="line"/>
      <point x="874" y="683" type="line"/>
      <point x="491" y="683" type="line"/>
      <point x="491" y="134" type="line"/>
      <point x="1088" y="134" type="line"/>
      <point x="1075" y="0" type="line"/>
    </contour>
  </outline>
</glyph>
<glyph name="section" format="1">
  <advance width="1000"/>
  <unicode hex="00A7"/>
  <outline>
    <contour>
      <point x="317" y="1191" type="curve" smooth="yes"/>
      <point x="317" y="1288"/>
      <point x="370" y="1349"/>
      <point x="531" y="1349" type="curve" smooth="yes"/>
      <point x="642" y="1349"/>
      <point x="739" y="1309"/>
      <point x="798" y="1280" type="curve"/>
      <point x="837" y="1402" type="line"/>
      <point x="746" y="1447"/>
      <point x="640" y="1476"/>
      <point x="514" y="1476" type="curve" smooth="yes"/>
      <point x="287" y="1476"/>
      <point x="164" y="1356"/>
      <point x="164" y="1188" type="curve" smooth="yes"/>
      <point x="164" y="1108"/>
      <point x="183" y="1043"/>
      <point x="248" y="990" type="curve"/>
      <point x="193" y="940"/>
      <point x="164" y="869"/>
      <point x="164" y="789" type="curve" smooth="yes"/>
      <point x="164" y="660"/>
      <point x="212" y="573"/>
      <point x="413" y="509" type="curve" smooth="yes"/>
      <point x="529" y="472" type="line" smooth="yes"/>
      <point x="688" y="421"/>
      <point x="732" y="369"/>
      <point x="732" y="290" type="curve" smooth="yes"/>
      <point x="732" y="170"/>
      <point x="657" y="105"/>
      <point x="530" y="105" type="curve" smooth="yes"/>
      <point x="414" y="105"/>
      <point x="310" y="137"/>
      <point x="187" y="196" type="curve"/>
      <point x="187" y="58" type="line"/>
      <point x="290" y="9"/>
      <point x="408" y="-20"/>
      <point x="518" y="-20" type="curve" smooth="yes"/>
      <point x="712" y="-20"/>
      <point x="879" y="69"/>
      <point x="879" y="287" type="curve" smooth="yes"/>
      <point x="879" y="375"/>
      <point x="863" y="438"/>
      <point x="812" y="490" type="curve"/>
      <point x="854" y="538"/>
      <point x="879" y="603"/>
      <point x="879" y="687" type="curve" smooth="yes"/>
      <point x="879" y="849"/>
      <point x="826" y="930"/>
      <point x="589" y="1004" type="curve" smooth="yes"/>
      <point x="484" y="1037" type="line" smooth="yes"/>
      <point x="348" y="1079"/>
      <point x="317" y="1105"/>
    </contour>
    <contour>
      <point x="382" y="920" type="curve"/>
      <point x="392" y="915"/>
      <point x="402" y="911"/>
      <point x="413" y="908" type="curve" smooth="yes"/>
      <point x="529" y="871" type="line" smooth="yes"/>
      <point x="688" y="821"/>
      <point x="732" y="768"/>
      <point x="732" y="690" type="curve" smooth="yes"/>
      <point x="732" y="638"/>
      <point x="718" y="595"/>
      <point x="692" y="566" type="curve"/>
      <point x="662" y="579"/>
      <point x="628" y="591"/>
      <point x="589" y="604" type="curve" smooth="yes"/>
      <point x="484" y="636" type="line" smooth="yes"/>
      <point x="348" y="680"/>
      <point x="317" y="705"/>
      <point x="317" y="792" type="curve" smooth="yes"/>
      <point x="317" y="850"/>
      <point x="334" y="892"/>
    </contour>
  </outline>
</glyph>
<glyph name="dieresis" format="1">
  <advance width="740"/>
  <unicode hex="00A8"/>
  <unicode hex="0308"/>
  <outline>
    <contour>
      <point x="193" y="1388" type="curve" smooth="yes"/>
      <point x="245" y="1388"/>
      <point x="286" y="1349"/>
      <point x="286" y="1292" type="curve" smooth="yes"/>
      <point x="286" y="1236"/>
      <point x="245" y="1196"/>
      <point x="193" y="1196" type="curve" smooth="yes"/>
      <point x="139" y="1196"/>
      <point x="100" y="1236"/>
      <point x="100" y="1292" type="curve" smooth="yes"/>
      <point x="100" y="1349"/>
      <point x="139" y="1388"/>
    </contour>
    <contour>
      <point x="648" y="1292" type="curve" smooth="yes"/>
      <point x="648" y="1236"/>
      <point x="608" y="1196"/>
      <point x="555" y="1196" type="curve" smooth="yes"/>
      <point x="502" y="1196"/>
      <point x="463" y="1236"/>
      <point x="463" y="1292" type="curve" smooth="yes"/>
      <point x="463" y="1349"/>
      <point x="502" y="1388"/>
      <point x="555" y="1388" type="curve" smooth="yes"/>
      <point x="608" y="1388"/>
      <point x="648" y="1349"/>
    </contour>
    <contour>
      <point x="381.0" y="1054.55" type="move" name="_top"/>
    </contour>
  </outline>
</glyph>
<glyph name="copyright" format="1">
  <advance width="1791"/>
  <unicode hex="00A9"/>
  <outline>
    <contour>
      <point x="962" y="-20" type="curve" smooth="yes"/>
      <point x="1344" y="-20"/>
      <point x="1728" y="236"/>
      <point x="1728" y="727" type="curve" smooth="yes"/>
      <point x="1728" y="1220"/>
      <point x="1343" y="1476"/>
      <point x="962" y="1476" type="curve" smooth="yes"/>
      <point x="584" y="1476"/>
      <point x="203" y="1220"/>
      <point x="203" y="727" type="curve" smooth="yes"/>
      <point x="203" y="236"/>
      <point x="584" y="-20"/>
    </contour>
    <contour>
      <point x="962" y="64" type="curve" smooth="yes"/>
      <point x="628" y="64"/>
      <point x="307" y="295"/>
      <point x="307" y="727" type="curve" smooth="yes"/>
      <point x="307" y="1160"/>
      <point x="628" y="1389"/>
      <point x="962" y="1389" type="curve" smooth="yes"/>
      <point x="1298" y="1389"/>
      <point x="1622" y="1160"/>
      <point x="1622" y="727" type="curve" smooth="yes"/>
      <point x="1622" y="296"/>
      <point x="1298" y="64"/>
    </contour>
    <contour>
      <point x="982" y="234" type="curve" smooth="yes"/>
      <point x="1082" y="234"/>
      <point x="1179" y="261"/>
      <point x="1265" y="316" type="curve"/>
      <point x="1231" y="400" type="line"/>
      <point x="1145" y="347"/>
      <point x="1066" y="329"/>
      <point x="986" y="329" type="curve" smooth="yes"/>
      <point x="785" y="329"/>
      <point x="626" y="483"/>
      <point x="626" y="729" type="curve" smooth="yes"/>
      <point x="626" y="958"/>
      <point x="784" y="1119"/>
      <point x="978" y="1119" type="curve" smooth="yes"/>
      <point x="1051" y="1119"/>
      <point x="1145" y="1094"/>
      <point x="1219" y="1041" type="curve"/>
      <point x="1262" y="1127" type="line"/>
      <point x="1174" y="1186"/>
      <point x="1076" y="1215"/>
      <point x="974" y="1215" type="curve" smooth="yes"/>
      <point x="717" y="1215"/>
      <point x="504" y="1005"/>
      <point x="504" y="725" type="curve" smooth="yes"/>
      <point x="504" y="436"/>
      <point x="723" y="234"/>
    </contour>
  </outline>
</glyph>
<glyph name="registered" format="1">
  <advance width="1788"/>
  <unicode hex="00AE"/>
  <outline>
    <contour>
      <point x="893" y="-20" type="curve" smooth="yes"/>
      <point x="1269" y="-20"/>
      <point x="1646" y="243"/>
      <point x="1646" y="749" type="curve" smooth="yes"/>
      <point x="1646" y="1253"/>
      <point x="1269" y="1517"/>
      <point x="893" y="1517" type="curve" smooth="yes"/>
      <point x="518" y="1517"/>
      <point x="142" y="1253"/>
      <point x="142" y="749" type="curve" smooth="yes"/>
      <point x="142" y="243"/>
      <point x="518" y="-20"/>
    </contour>
    <contour>
      <point x="893" y="66" type="curve" smooth="yes"/>
      <point x="562" y="66"/>
      <point x="246" y="304"/>
      <point x="246" y="749" type="curve" smooth="yes"/>
      <point x="246" y="1192"/>
      <point x="562" y="1430"/>
      <point x="893" y="1430" type="curve" smooth="yes"/>
      <point x="1224" y="1430"/>
      <point x="1543" y="1191"/>
      <point x="1543" y="748" type="curve" smooth="yes"/>
      <point x="1543" y="304"/>
      <point x="1224" y="66"/>
    </contour>
    <contour>
      <point x="712" y="841" type="line"/>
      <point x="712" y="1142" type="line"/>
      <point x="900" y="1142" type="line" smooth="yes"/>
      <point x="1061" y="1142"/>
      <point x="1121" y="1124"/>
      <point x="1121" y="995" type="curve" smooth="yes"/>
      <point x="1121" y="885"/>
      <point x="1077" y="841"/>
      <point x="936" y="841" type="curve" smooth="yes"/>
    </contour>
    <contour>
      <point x="600" y="301" type="line"/>
      <point x="711" y="301" type="line"/>
      <point x="711" y="741" type="line"/>
      <point x="927" y="741" type="line"/>
      <point x="936" y="730"/>
      <point x="1138" y="301"/>
      <point x="1138" y="301" type="curve"/>
      <point x="1262" y="301" type="line"/>
      <point x="1262" y="301"/>
      <point x="1054" y="733"/>
      <point x="1038" y="756" type="curve"/>
      <point x="1168" y="770"/>
      <point x="1229" y="860"/>
      <point x="1229" y="999" type="curve" smooth="yes"/>
      <point x="1229" y="1166"/>
      <point x="1148" y="1243"/>
      <point x="916" y="1243" type="curve" smooth="yes"/>
      <point x="600" y="1243" type="line"/>
    </contour>
  </outline>
</glyph>
<glyph name="degree" format="1">
  <advance width="809"/>
  <unicode hex="00B0"/>
  <outline>
    <contour>
      <point x="404" y="907" type="curve" smooth="yes"/>
      <point x="568" y="907"/>
      <point x="705" y="1034"/>
      <point x="705" y="1202" type="curve" smooth="yes"/>
      <point x="705" y="1375"/>
      <point x="564" y="1494"/>
      <point x="404" y="1494" type="curve" smooth="yes"/>
      <point x="247" y="1494"/>
      <point x="105" y="1375"/>
      <point x="105" y="1202" type="curve" smooth="yes"/>
      <point x="105" y="1027"/>
      <point x="247" y="907"/>
    </contour>
    <contour>
      <point x="404" y="1003" type="curve" smooth="yes"/>
      <point x="298" y="1003"/>
      <point x="213" y="1083"/>
      <point x="213" y="1201" type="curve" smooth="yes"/>
      <point x="213" y="1318"/>
      <point x="300" y="1398"/>
      <point x="405" y="1398" type="curve" smooth="yes"/>
      <point x="511" y="1398"/>
      <point x="597" y="1318"/>
      <point x="597" y="1201" type="curve" smooth="yes"/>
      <point x="597" y="1084"/>
      <point x="511" y="1003"/>
    </contour>
  </outline>
</glyph>
<glyph name="uni00B2" format="1">
  <advance width="730"/>
  <unicode hex="00B2"/>
  <outline>
    <contour>
      <point x="622" y="649" type="line"/>
      <point x="107" y="649" type="line"/>
      <point x="107" y="741" type="line"/>
      <point x="347" y="988"/>
      <point x="521" y="1144"/>
      <point x="521" y="1269" type="curve" smooth="yes"/>
      <point x="521" y="1378"/>
      <point x="453" y="1425"/>
      <point x="376" y="1425" type="curve" smooth="yes"/>
      <point x="294" y="1425"/>
      <point x="214" y="1388"/>
      <point x="150" y="1300" type="curve"/>
      <point x="79" y="1360" type="line"/>
      <point x="130" y="1459"/>
      <point x="251" y="1525"/>
      <point x="364" y="1525" type="curve" smooth="yes"/>
      <point x="519" y="1525"/>
      <point x="633" y="1441"/>
      <point x="633" y="1278" type="curve" smooth="yes"/>
      <point x="633" y="1085"/>
      <point x="462" y="947"/>
      <point x="250" y="748" type="curve"/>
      <point x="622" y="748" type="line"/>
    </contour>
  </outline>
</glyph>
<glyph name="uni00B3" format="1">
  <advance width="800"/>
  <unicode hex="00B3"/>
  <outline>
    <contour>
      <point x="391" y="615" type="curve" smooth="yes"/>
      <point x="536" y="615"/>
      <point x="652" y="712"/>
      <point x="652" y="873" type="curve" smooth="yes"/>
      <point x="652" y="973"/>
      <point x="594" y="1053"/>
      <point x="489" y="1084" type="curve"/>
      <point x="595" y="1111"/>
      <point x="633" y="1198"/>
      <point x="633" y="1262" type="curve" smooth="yes"/>
      <point x="633" y="1419"/>
      <point x="511" y="1496"/>
      <point x="386" y="1496" type="curve" smooth="yes"/>
      <point x="299" y="1496"/>
      <point x="184" y="1461"/>
      <point x="128" y="1399" type="curve"/>
      <point x="182" y="1310" type="line"/>
      <point x="222" y="1351"/>
      <point x="314" y="1381"/>
      <point x="381" y="1381" type="curve" smooth="yes"/>
      <point x="451" y="1381"/>
      <point x="502" y="1342"/>
      <point x="502" y="1260" type="curve" smooth="yes"/>
      <point x="502" y="1177"/>
      <point x="425" y="1135"/>
      <point x="325" y="1135" type="curve" smooth="yes"/>
      <point x="254" y="1135" type="line"/>
      <point x="254" y="1019" type="line"/>
      <point x="328" y="1019" type="line" smooth="yes"/>
      <point x="438" y="1019"/>
      <point x="521" y="972"/>
      <point x="521" y="877" type="curve" smooth="yes"/>
      <point x="521" y="778"/>
      <point x="458" y="731"/>
      <point x="379" y="731" type="curve" smooth="yes"/>
      <point x="317" y="731"/>
      <point x="228" y="757"/>
      <point x="179" y="803" type="curve"/>
      <point x="130" y="704" type="line"/>
      <point x="190" y="641"/>
      <point x="309" y="615"/>
    </contour>
  </outline>
</glyph>
<glyph name="paragraph" format="1">
  <advance width="1204"/>
  <unicode hex="00B6"/>
  <outline>
    <contour>
      <point x="521" y="-20" type="line"/>
      <point x="645" y="-20" type="line"/>
      <point x="645" y="1334" type="line"/>
      <point x="821" y="1334" type="line"/>
      <point x="821" y="-20" type="line"/>
      <point x="945" y="-20" type="line"/>
      <point x="945" y="1334" type="line"/>
      <point x="1061" y="1334" type="line"/>
      <point x="1061" y="1456" type="line"/>
      <point x="552" y="1456" type="line" smooth="yes"/>
      <point x="232" y="1456"/>
      <point x="139" y="1276"/>
      <point x="139" y="1117" type="curve" smooth="yes"/>
      <point x="139" y="942"/>
      <point x="240" y="771"/>
      <point x="521" y="771" type="curve"/>
    </contour>
  </outline>
</glyph>
<glyph name="periodcentered" format="1">
  <advance width="478"/>
  <unicode hex="00B7"/>
  <outline>
    <contour>
      <point x="239" y="732" type="curve" smooth="yes"/>
      <point x="302" y="732"/>
      <point x="350" y="688"/>
      <point x="350" y="624" type="curve" smooth="yes"/>
      <point x="350" y="559"/>
      <point x="302" y="514"/>
      <point x="239" y="514" type="curve" smooth="yes"/>
      <point x="175" y="514"/>
      <point x="128" y="559"/>
      <point x="128" y="624" type="curve" smooth="yes"/>
      <point x="128" y="688"/>
      <point x="175" y="732"/>
    </contour>
    <contour>
      <point x="240.0" y="622.65" type="move" name="_mid"/>
    </contour>
  </outline>
</glyph>
<glyph name="cedilla" format="1">
  <advance width="575"/>
  <unicode hex="00B8"/>
  <outline>
    <contour>
      <point x="94" y="-430" type="line"/>
      <point x="258" y="-456" type="line"/>
      <point x="326" y="22" type="line"/>
      <point x="260" y="22" type="line"/>
    </contour>
    <contour>
      <point x="289.0" y="11.4" type="move" name="_bot"/>
    </contour>
  </outline>
</glyph>
<glyph name="ordmasculine" format="1">
  <advance width="844"/>
  <unicode hex="00BA"/>
  <outline>
    <contour>
      <point x="757" y="1114" type="curve" smooth="yes"/>
      <point x="757" y="1339"/>
      <point x="645" y="1499"/>
      <point x="421" y="1499" type="curve" smooth="yes"/>
      <point x="203" y="1499"/>
      <point x="85" y="1336"/>
      <point x="85" y="1114" type="curve" smooth="yes"/>
      <point x="85" y="897"/>
      <point x="203" y="735"/>
      <point x="421" y="735" type="curve" smooth="yes"/>
      <point x="627" y="735"/>
      <point x="757" y="900"/>
    </contour>
    <contour>
      <point x="222" y="1114" type="curve" smooth="yes"/>
      <point x="222" y="1287"/>
      <point x="289" y="1392"/>
      <point x="421" y="1392" type="curve" smooth="yes"/>
      <point x="557" y="1392"/>
      <point x="627" y="1285"/>
      <point x="627" y="1111" type="curve" smooth="yes"/>
      <point x="627" y="942"/>
      <point x="561" y="842"/>
      <point x="421" y="842" type="curve" smooth="yes"/>
      <point x="288" y="842"/>
      <point x="222" y="943"/>
    </contour>
  </outline>
</glyph>
<glyph name="guillemotright" format="1">
  <advance width="989"/>
  <unicode hex="00BB"/>
  <outline>
    <contour>
      <point x="265" y="148" type="line"/>
      <point x="549" y="549" type="line"/>
      <point x="262" y="953" type="line"/>
      <point x="101" y="953" type="line"/>
      <point x="385" y="552" type="line"/>
      <point x="108" y="148" type="line"/>
    </contour>
    <contour>
      <point x="618" y="148" type="line"/>
      <point x="902" y="549" type="line"/>
      <point x="614" y="953" type="line"/>
      <point x="453" y="953" type="line"/>
      <point x="737" y="552" type="line"/>
      <point x="461" y="148" type="line"/>
    </contour>
  </outline>
</glyph>
<glyph name="onequarter" format="1">
  <advance width="1585"/>
  <unicode hex="00BC"/>
  <outline>
    <contour>
      <point x="1076" y="297" type="line"/>
      <point x="1314" y="690" type="line"/>
      <point x="1314" y="297" type="line"/>
    </contour>
    <contour>
      <point x="328" y="0" type="line"/>
      <point x="460" y="0" type="line"/>
      <point x="1367" y="1517" type="line"/>
      <point x="1236" y="1517" type="line"/>
    </contour>
    <contour>
      <point x="1315" y="0" type="line"/>
      <point x="1442" y="0" type="line"/>
      <point x="1442" y="191" type="line"/>
      <point x="1564" y="191" type="line"/>
      <point x="1556" y="297" type="line"/>
      <point x="1443" y="297" type="line"/>
      <point x="1443" y="857" type="line"/>
      <point x="1305" y="857" type="line"/>
      <point x="937" y="284" type="line"/>
      <point x="937" y="191" type="line"/>
      <point x="1315" y="191" type="line"/>
    </contour>
    <contour>
      <point x="83" y="613" type="line"/>
      <point x="514" y="613" type="line"/>
      <point x="514" y="725" type="line"/>
      <point x="375" y="725" type="line"/>
      <point x="375" y="1496" type="line"/>
      <point x="265" y="1496" type="line"/>
      <point x="223" y="1457"/>
      <point x="109" y="1406"/>
      <point x="73" y="1393" type="curve"/>
      <point x="73" y="1279" type="line"/>
      <point x="107" y="1292"/>
      <point x="200" y="1329"/>
      <point x="237" y="1353" type="curve"/>
      <point x="237" y="725" type="line"/>
      <point x="83" y="725" type="line"/>
    </contour>
  </outline>
</glyph>
<glyph name="onehalf" format="1">
  <advance width="1645"/>
  <unicode hex="00BD"/>
  <outline>
    <contour>
      <point x="303" y="6" type="line"/>
      <point x="436" y="6" type="line"/>
      <point x="1344" y="1516" type="line"/>
      <point x="1211" y="1516" type="line"/>
    </contour>
    <contour>
      <point x="1023" y="-9" type="line"/>
      <point x="1544" y="-9" type="line"/>
      <point x="1550" y="105" type="line"/>
      <point x="1200" y="105" type="line"/>
      <point x="1371" y="272" type="line" smooth="yes"/>
      <point x="1495" y="393"/>
      <point x="1558" y="465"/>
      <point x="1558" y="606" type="curve" smooth="yes"/>
      <point x="1558" y="773"/>
      <point x="1427" y="862"/>
      <point x="1275" y="862" type="curve" smooth="yes"/>
      <point x="1160" y="862"/>
      <point x="1035" y="803"/>
      <point x="982" y="707" type="curve"/>
      <point x="1054" y="628" type="line"/>
      <point x="1112" y="707"/>
      <point x="1195" y="742"/>
      <point x="1273" y="742" type="curve" smooth="yes"/>
      <point x="1355" y="742"/>
      <point x="1426" y="696"/>
      <point x="1426" y="598" type="curve" smooth="yes"/>
      <point x="1426" y="527"/>
      <point x="1386" y="465"/>
      <point x="1271" y="349" type="curve" smooth="yes"/>
      <point x="1023" y="101" type="line"/>
    </contour>
    <contour>
      <point x="83" y="613" type="line"/>
      <point x="514" y="613" type="line"/>
      <point x="514" y="725" type="line"/>
      <point x="375" y="725" type="line"/>
      <point x="375" y="1497" type="line"/>
      <point x="265" y="1497" type="line"/>
      <point x="223" y="1457"/>
      <point x="109" y="1407"/>
      <point x="73" y="1393" type="curve"/>
      <point x="73" y="1279" type="line"/>
      <point x="107" y="1292"/>
      <point x="200" y="1330"/>
      <point x="237" y="1353" type="curve"/>
      <point x="237" y="725" type="line"/>
      <point x="83" y="725" type="line"/>
    </contour>
  </outline>
</glyph>
<glyph name="threequarters" format="1">
  <advance width="1615"/>
  <unicode hex="00BE"/>
  <outline>
    <contour>
      <point x="350" y="630" type="curve" smooth="yes"/>
      <point x="495" y="630"/>
      <point x="611" y="728"/>
      <point x="611" y="889" type="curve" smooth="yes"/>
      <point x="611" y="988"/>
      <point x="553" y="1068"/>
      <point x="448" y="1100" type="curve"/>
      <point x="554" y="1126"/>
      <point x="592" y="1214"/>
      <point x="592" y="1277" type="curve" smooth="yes"/>
      <point x="592" y="1434"/>
      <point x="470" y="1512"/>
      <point x="345" y="1512" type="curve" smooth="yes"/>
      <point x="258" y="1512"/>
      <point x="143" y="1476"/>
      <point x="87" y="1414" type="curve"/>
      <point x="141" y="1325" type="line"/>
      <point x="181" y="1366"/>
      <point x="273" y="1396"/>
      <point x="340" y="1396" type="curve" smooth="yes"/>
      <point x="410" y="1396"/>
      <point x="461" y="1357"/>
      <point x="461" y="1275" type="curve" smooth="yes"/>
      <point x="461" y="1192"/>
      <point x="384" y="1150"/>
      <point x="284" y="1150" type="curve" smooth="yes"/>
      <point x="213" y="1150" type="line"/>
      <point x="213" y="1034" type="line"/>
      <point x="287" y="1034" type="line" smooth="yes"/>
      <point x="397" y="1034"/>
      <point x="480" y="987"/>
      <point x="480" y="893" type="curve" smooth="yes"/>
      <point x="480" y="793"/>
      <point x="417" y="746"/>
      <point x="338" y="746" type="curve" smooth="yes"/>
      <point x="276" y="746"/>
      <point x="187" y="773"/>
      <point x="138" y="818" type="curve"/>
      <point x="89" y="720" type="line"/>
      <point x="149" y="656"/>
      <point x="268" y="630"/>
    </contour>
    <contour>
      <point x="1315" y="0" type="line"/>
      <point x="1442" y="0" type="line"/>
      <point x="1442" y="191" type="line"/>
      <point x="1564" y="191" type="line"/>
      <point x="1556" y="297" type="line"/>
      <point x="1443" y="297" type="line"/>
      <point x="1443" y="857" type="line"/>
      <point x="1305" y="857" type="line"/>
      <point x="937" y="284" type="line"/>
      <point x="937" y="191" type="line"/>
      <point x="1315" y="191" type="line"/>
    </contour>
    <contour>
      <point x="1076" y="297" type="line"/>
      <point x="1314" y="690" type="line"/>
      <point x="1314" y="297" type="line"/>
    </contour>
    <contour>
      <point x="349" y="0" type="line"/>
      <point x="481" y="0" type="line"/>
      <point x="1388" y="1517" type="line"/>
      <point x="1257" y="1517" type="line"/>
    </contour>
  </outline>
</glyph>
<glyph name="AE" format="1">
  <advance width="1653"/>
  <unicode hex="00C6"/>
  <outline>
    <contour>
      <point x="779" y="0" type="line"/>
      <point x="1569" y="0" type="line"/>
      <point x="1581" y="137" type="line"/>
      <point x="948" y="137" type="line"/>
      <point x="948" y="706" type="line"/>
      <point x="1498" y="706" type="line"/>
      <point x="1498" y="842" type="line"/>
      <point x="948" y="842" type="line"/>
      <point x="948" y="1361" type="line"/>
      <point x="1560" y="1361" type="line"/>
      <point x="1566" y="1496" type="line"/>
      <point x="695" y="1496" type="line"/>
      <point x="52" y="0" type="line"/>
      <point x="235" y="0" type="line"/>
      <point x="436" y="482" type="line"/>
      <point x="779" y="482" type="line"/>
    </contour>
    <contour>
      <point x="779" y="607" type="line"/>
      <point x="484" y="607" type="line"/>
      <point x="779" y="1341" type="line"/>
    </contour>
    <contour>
      <point x="1105.0" y="1496.5" type="move" name="top"/>
    </contour>
  </outline>
</glyph>
<glyph name="multiply" format="1">
  <advance width="1204"/>
  <unicode hex="00D7"/>
  <outline>
    <contour>
      <point x="899" y="253" type="line"/>
      <point x="986" y="349" type="line"/>
      <point x="986" y="349"/>
      <point x="717" y="645"/>
      <point x="695" y="667" type="curve"/>
      <point x="983" y="975" type="line"/>
      <point x="888" y="1071" type="line"/>
      <point x="605" y="763" type="line"/>
      <point x="319" y="1075" type="line"/>
      <point x="228" y="979" type="line"/>
      <point x="514" y="667" type="line"/>
      <point x="218" y="346" type="line"/>
      <point x="309" y="253" type="line"/>
      <point x="605" y="570" type="line"/>
    </contour>
  </outline>
</glyph>
<glyph name="Thorn" format="1">
  <advance width="1051"/>
  <unicode hex="00DE"/>
  <outline>
    <contour>
      <point x="164" y="0" type="line"/>
      <point x="340" y="0" type="line"/>
      <point x="340" y="462" type="line"/>
      <point x="527" y="462" type="line" smooth="yes"/>
      <point x="865" y="462"/>
      <point x="989" y="588"/>
      <point x="989" y="835" type="curve" smooth="yes"/>
      <point x="989" y="1093"/>
      <point x="801" y="1170"/>
      <point x="530" y="1170" type="curve" smooth="yes"/>
      <point x="340" y="1170" type="line"/>
      <point x="340" y="1496" type="line"/>
      <point x="164" y="1496" type="line"/>
    </contour>
    <contour>
      <point x="340" y="1041" type="line"/>
      <point x="529" y="1041" type="line" smooth="yes"/>
      <point x="709" y="1041"/>
      <point x="813" y="1001"/>
      <point x="813" y="833" type="curve" smooth="yes"/>
      <point x="813" y="646"/>
      <point x="740" y="593"/>
      <point x="523" y="593" type="curve" smooth="yes"/>
      <point x="340" y="593" type="line"/>
    </contour>
  </outline>
</glyph>
<glyph name="ae" format="1">
  <advance width="1701"/>
  <unicode hex="00E6"/>
  <outline>
    <contour>
      <point x="910" y="619" type="curve"/>
      <point x="932" y="855"/>
      <point x="1053" y="978"/>
      <point x="1232" y="978" type="curve" smooth="yes"/>
      <point x="1387" y="978"/>
      <point x="1473" y="905"/>
      <point x="1473" y="800" type="curve" smooth="yes"/>
      <point x="1473" y="661"/>
      <point x="1310" y="619"/>
    </contour>
    <contour>
      <point x="1235" y="-20" type="curve" smooth="yes"/>
      <point x="1394" y="-20"/>
      <point x="1502" y="17"/>
      <point x="1596" y="75" type="curve"/>
      <point x="1561" y="195" type="line"/>
      <point x="1457" y="139"/>
      <point x="1373" y="109"/>
      <point x="1244" y="109" type="curve" smooth="yes"/>
      <point x="1047" y="109"/>
      <point x="917" y="222"/>
      <point x="907" y="508" type="curve"/>
      <point x="1455" y="508"/>
      <point x="1603" y="594"/>
      <point x="1603" y="801" type="curve" smooth="yes"/>
      <point x="1603" y="955"/>
      <point x="1490" y="1108"/>
      <point x="1229" y="1108" type="curve" smooth="yes"/>
      <point x="1086" y="1108"/>
      <point x="911" y="1023"/>
      <point x="860" y="855" type="curve"/>
      <point x="827" y="1036"/>
      <point x="691" y="1108"/>
      <point x="509" y="1108" type="curve" smooth="yes"/>
      <point x="387" y="1108"/>
      <point x="261" y="1083"/>
      <point x="147" y="1029" type="curve"/>
      <point x="192" y="904" type="line"/>
      <point x="292" y="954"/>
      <point x="408" y="978"/>
      <point x="512" y="978" type="curve" smooth="yes"/>
      <point x="675" y="978"/>
      <point x="743" y="898"/>
      <point x="743" y="742" type="curve" smooth="yes"/>
      <point x="743" y="593" type="line"/>
      <point x="665" y="603"/>
      <point x="595" y="607"/>
      <point x="533" y="607" type="curve" smooth="yes"/>
      <point x="214" y="607"/>
      <point x="93" y="482"/>
      <point x="93" y="293" type="curve" smooth="yes"/>
      <point x="93" y="92"/>
      <point x="218" y="-20"/>
      <point x="409" y="-20" type="curve"/>
      <point x="680" y="-20"/>
      <point x="791" y="152"/>
      <point x="825" y="254" type="curve"/>
      <point x="867" y="147"/>
      <point x="960" y="-20"/>
    </contour>
    <contour>
      <point x="743" y="420" type="line" smooth="yes"/>
      <point x="743" y="216"/>
      <point x="618" y="104"/>
      <point x="417" y="104" type="curve" smooth="yes"/>
      <point x="324" y="104"/>
      <point x="251" y="167"/>
      <point x="251" y="292" type="curve" smooth="yes"/>
      <point x="251" y="415"/>
      <point x="313" y="494"/>
      <point x="543" y="494" type="curve" smooth="yes"/>
      <point x="599" y="494"/>
      <point x="666" y="489"/>
      <point x="743" y="479" type="curve"/>
    </contour>
    <contour>
      <point x="890.0" y="1084.95" type="move" name="top"/>
    </contour>
  </outline>
</glyph>
<glyph name="divide" format="1">
  <advance width="1204"/>
  <unicode hex="00F7"/>
  <outline>
    <contour>
      <point x="507" y="892" type="line"/>
      <point x="700" y="892" type="line"/>
      <point x="700" y="1094" type="line"/>
      <point x="507" y="1094" type="line"/>
    </contour>
    <contour>
      <point x="126" y="507" type="line"/>
      <point x="1077" y="507" type="line"/>
      <point x="1077" y="645" type="line"/>
      <point x="126" y="645" type="line"/>
    </contour>
    <contour>
      <point x="507" y="32" type="line"/>
      <point x="698" y="32" type="line"/>
      <point x="698" y="238" type="line"/>
      <point x="507" y="238" type="line"/>
    </contour>
  </outline>
</glyph>
<glyph name="oslash" format="1">
  <advance width="1165"/>
  <unicode hex="00F8"/>
  <outline>
    <contour>
      <point x="263" y="-162" type="line"/>
      <point x="988" y="1200" type="line"/>
      <point x="917" y="1238" type="line"/>
      <point x="198" y="-124" type="line"/>
    </contour>
    <component base="o"/>
  </outline>
</glyph>
<glyph name="Eng" format="1">
  <advance width="1367"/>
  <unicode hex="014A"/>
  <outline>
    <contour>
      <point x="825" y="-316" type="curve" smooth="yes"/>
      <point x="794" y="-316"/>
      <point x="745" y="-314"/>
      <point x="607" y="-301" type="curve"/>
      <point x="585" y="-170" type="line"/>
      <point x="738" y="-180"/>
      <point x="748" y="-181"/>
      <point x="771" y="-181" type="curve" smooth="yes"/>
      <point x="1063" y="-181"/>
      <point x="1083" y="-104"/>
      <point x="1083" y="181" type="curve" smooth="yes"/>
      <point x="1083" y="1012" type="line" smooth="yes"/>
      <point x="1083" y="1281"/>
      <point x="1009" y="1370"/>
      <point x="787" y="1370" type="curve" smooth="yes"/>
      <point x="553" y="1370"/>
      <point x="389" y="1234"/>
      <point x="295" y="1093" type="curve"/>
      <point x="295" y="8" type="line"/>
      <point x="158" y="8" type="line"/>
      <point x="155" y="1504" type="line"/>
      <point x="282" y="1504" type="line"/>
      <point x="298" y="1277" type="line"/>
      <point x="491" y="1485"/>
      <point x="664" y="1520"/>
      <point x="836" y="1520" type="curve" smooth="yes"/>
      <point x="1089" y="1520"/>
      <point x="1220" y="1346"/>
      <point x="1220" y="1016" type="curve" smooth="yes"/>
      <point x="1220" y="173" type="line" smooth="yes"/>
      <point x="1220" y="-130"/>
      <point x="1171" y="-316"/>
    </contour>
  </outline>
</glyph>
<glyph name="eng" format="1">
  <advance width="1163"/>
  <unicode hex="014B"/>
  <outline>
    <contour>
      <point x="629" y="-282" type="line"/>
      <point x="696" y="-282" type="line" smooth="yes"/>
      <point x="972" y="-282"/>
      <point x="1012" y="-129"/>
      <point x="1012" y="172" type="curve" smooth="yes"/>
      <point x="1012" y="670" type="line" smooth="yes"/>
      <point x="1012" y="965"/>
      <point x="909" y="1114"/>
      <point x="665" y="1114" type="curve" smooth="yes"/>
      <point x="513" y="1114"/>
      <point x="403" y="1055"/>
      <point x="328" y="932" type="curve"/>
      <point x="309" y="1093" type="line"/>
      <point x="165" y="1093" type="line"/>
      <point x="165" y="7" type="line"/>
      <point x="332" y="7" type="line"/>
      <point x="332" y="612" type="line" smooth="yes"/>
      <point x="332" y="661"/>
      <point x="335" y="706"/>
      <point x="339" y="750" type="curve"/>
      <point x="370" y="883"/>
      <point x="449" y="984"/>
      <point x="637" y="984" type="curve" smooth="yes"/>
      <point x="807" y="984"/>
      <point x="846" y="871"/>
      <point x="846" y="689" type="curve" smooth="yes"/>
      <point x="846" y="119" type="line" smooth="yes"/>
      <point x="846" y="-100"/>
      <point x="828" y="-129"/>
      <point x="656" y="-129" type="curve" smooth="yes"/>
      <point x="621" y="-129" type="line"/>
    </contour>
  </outline>
</glyph>
<glyph name="OE" format="1">
  <advance width="1881"/>
  <unicode hex="0152"/>
  <outline>
    <contour>
      <point x="1004" y="1496" type="line"/>
      <point x="873" y="1496" type="line" smooth="yes"/>
      <point x="411" y="1496"/>
      <point x="120" y="1231"/>
      <point x="120" y="744" type="curve" smooth="yes"/>
      <point x="120" y="232"/>
      <point x="439" y="0"/>
      <point x="902" y="0" type="curve" smooth="yes"/>
      <point x="1004" y="0" type="line"/>
    </contour>
    <contour>
      <point x="930" y="135" type="line"/>
      <point x="910" y="135" type="line" smooth="yes"/>
      <point x="521" y="135"/>
      <point x="296" y="315"/>
      <point x="296" y="749" type="curve" smooth="yes"/>
      <point x="296" y="1146"/>
      <point x="492" y="1359"/>
      <point x="883" y="1359" type="curve" smooth="yes"/>
      <point x="930" y="1359" type="line"/>
    </contour>
    <component base="E" xOffset="748"/>
  </outline>
</glyph>
<glyph name="uni0237" format="1">
  <advance width="455"/>
  <unicode hex="0237"/>
  <outline>
    <contour>
      <point x="-49" y="-455" type="line"/>
      <point x="8" y="-455" type="line" smooth="yes"/>
      <point x="262" y="-455"/>
      <point x="315" y="-370"/>
      <point x="315" y="-112" type="curve" smooth="yes"/>
      <point x="315" y="1111" type="line"/>
      <point x="135" y="1111" type="line"/>
      <point x="135" y="-87" type="line" smooth="yes"/>
      <point x="135" y="-123"/>
      <point x="136" y="-154"/>
      <point x="136" y="-180" type="curve" smooth="yes"/>
      <point x="136" y="-277"/>
      <point x="121" y="-313"/>
      <point x="-22" y="-313" type="curve" smooth="yes"/>
      <point x="-82" y="-313" type="line"/>
    </contour>
  </outline>
</glyph>
<glyph name="uni02BC" format="1">
  <advance width="512"/>
  <unicode hex="02BC"/>
  <outline>
    <contour>
      <point x="115" y="1058" type="line"/>
      <point x="239" y="1058" type="line"/>
      <point x="407" y="1516" type="line"/>
      <point x="227" y="1516" type="line"/>
    </contour>
    <contour>
      <point x="165.0" y="945.25" type="move" name="_top"/>
    </contour>
    <contour>
      <point x="177.0" y="945.25" type="move" name="_mid"/>
    </contour>
    <contour>
      <point x="325.0" y="1598.175" type="move" name="_bot"/>
    </contour>
  </outline>
</glyph>
<glyph name="circumflex" format="1">
  <advance width="775"/>
  <unicode hex="02C6"/>
  <outline>
    <contour>
      <point x="68" y="1166" type="line"/>
      <point x="179" y="1166" type="line"/>
      <point x="377" y="1376" type="line"/>
      <point x="571" y="1166" type="line"/>
      <point x="683" y="1166" type="line"/>
      <point x="475" y="1467" type="line"/>
      <point x="288" y="1467" type="line"/>
    </contour>
    <contour>
      <point x="377.0" y="1004.05" type="move" name="_top"/>
    </contour>
  </outline>
</glyph>
<glyph name="dotaccent" format="1">
  <advance width="365"/>
  <unicode hex="02D9"/>
  <outline>
    <contour>
      <point x="109" y="1179" type="line"/>
      <point x="260" y="1179" type="line"/>
      <point x="260" y="1354" type="line"/>
      <point x="109" y="1354" type="line"/>
    </contour>
    <contour>
      <point x="184.0" y="1003.725" type="move" name="_top"/>
    </contour>
  </outline>
</glyph>
<glyph name="gravecomb" format="1">
  <advance width="650"/>
  <unicode hex="0300"/>
  <outline>
    <contour>
      <point x="414" y="1058" type="line"/>
      <point x="508" y="1058" type="line"/>
      <point x="332" y="1470" type="line"/>
      <point x="144" y="1470" type="line"/>
    </contour>
  </outline>
</glyph>
<glyph name="uni0304" format="1">
  <advance width="783"/>
  <unicode hex="0304"/>
  <outline>
    <contour>
      <point x="96" y="1231" type="line"/>
      <point x="681" y="1231" type="line"/>
      <point x="681" y="1353" type="line"/>
      <point x="96" y="1353" type="line"/>
    </contour>
    <contour>
      <point x="377.0" y="1002.425" type="move" name="_top"/>
    </contour>
  </outline>
</glyph>
<glyph name="uni031B" format="1">
  <advance width="481"/>
  <unicode hex="031B"/>
  <outline>
    <contour>
      <point x="220" y="502" type="line"/>
      <point x="228" y="481"/>
      <point x="234" y="448"/>
      <point x="234" y="414" type="curve" smooth="yes"/>
      <point x="234" y="341"/>
      <point x="208" y="247"/>
      <point x="99" y="247" type="curve" smooth="yes"/>
      <point x="93" y="247"/>
      <point x="84" y="247"/>
      <point x="77" y="248" type="curve"/>
      <point x="77" y="165" type="line"/>
      <point x="98" y="162"/>
      <point x="118" y="160"/>
      <point x="137" y="160" type="curve" smooth="yes"/>
      <point x="296" y="160"/>
      <point x="339" y="269"/>
      <point x="339" y="368" type="curve" smooth="yes"/>
      <point x="339" y="419"/>
      <point x="327" y="470"/>
      <point x="313" y="502" type="curve"/>
    </contour>
    <contour>
      <point x="81.0" y="206.125" type="move" name="_hook"/>
    </contour>
  </outline>
</glyph>
<glyph name="uni0326" format="1">
  <advance width="297"/>
  <unicode hex="0326"/>
  <outline>
    <contour>
      <point x="33" y="-594" type="curve"/>
      <point x="130" y="-594" type="line"/>
      <point x="130" y="-594"/>
      <point x="247" y="-141"/>
      <point x="247" y="-111" type="curve" smooth="yes"/>
      <point x="247" y="-70" type="line"/>
      <point x="74" y="-70" type="line"/>
      <point x="74" y="-145"/>
      <point x="33" y="-594"/>
    </contour>
    <contour>
      <point x="165.0" y="14.85" type="move" name="_bot"/>
    </contour>
  </outline>
</glyph>
<glyph name="Phi" format="1">
  <advance width="1644"/>
  <unicode hex="03A6"/>
  <outline>
    <contour>
      <point x="912" y="317" type="line"/>
      <point x="1223" y="344"/>
      <point x="1360" y="534"/>
      <point x="1360" y="766" type="curve" smooth="yes"/>
      <point x="1360" y="1006"/>
      <point x="1211" y="1174"/>
      <point x="912" y="1200" type="curve"/>
    </contour>
    <contour>
      <point x="744" y="317" type="curve"/>
      <point x="744" y="1200" type="line"/>
      <point x="449" y="1173"/>
      <point x="300" y="1006"/>
      <point x="300" y="766" type="curve" smooth="yes"/>
      <point x="300" y="534"/>
      <point x="437" y="345"/>
    </contour>
    <contour>
      <point x="744" y="0" type="line"/>
      <point x="744" y="170" type="line"/>
      <point x="334" y="200"/>
      <point x="121" y="447"/>
      <point x="121" y="766" type="curve" smooth="yes"/>
      <point x="121" y="1091"/>
      <point x="348" y="1318"/>
      <point x="744" y="1347" type="curve"/>
      <point x="744" y="1482" type="line"/>
      <point x="912" y="1482" type="line"/>
      <point x="912" y="1347" type="line"/>
      <point x="1313" y="1320"/>
      <point x="1539" y="1092"/>
      <point x="1539" y="766" type="curve" smooth="yes"/>
      <point x="1539" y="445"/>
      <point x="1325" y="198"/>
      <point x="912" y="170" type="curve"/>
      <point x="912" y="0" type="line"/>
    </contour>
  </outline>
</glyph>
<glyph name="afii10145" format="1">
  <advance width="1523"/>
  <unicode hex="040F"/>
  <outline>
    <contour>
      <point x="1299" y="1493" type="line"/>
      <point x="1299" y="7" type="line"/>
      <point x="841" y="7" type="line"/>
      <point x="841" y="-294" type="line"/>
      <point x="719" y="-294" type="line"/>
      <point x="719" y="7" type="line"/>
      <point x="225" y="7" type="line"/>
      <point x="225" y="1493" type="line"/>
      <point x="347" y="1493" type="line"/>
      <point x="347" y="97" type="line"/>
      <point x="1177" y="97" type="line"/>
      <point x="1177" y="1493" type="line"/>
    </contour>
  </outline>
</glyph>
<glyph name="afii10021" format="1">
  <advance width="1463"/>
  <unicode hex="0414"/>
  <outline>
    <contour>
      <point x="27" y="-294" type="line"/>
      <point x="27" y="98" type="line"/>
      <point x="187" y="98" type="line"/>
      <point x="279" y="164"/>
      <point x="325" y="393"/>
      <point x="377" y="1125" type="curve" smooth="yes"/>
      <point x="404" y="1504" type="line"/>
      <point x="1233" y="1504" type="line"/>
      <point x="1233" y="98" type="line"/>
      <point x="1366" y="98" type="line"/>
      <point x="1366" y="-294" type="line"/>
      <point x="1257" y="-294" type="line"/>
      <point x="1257" y="7" type="line"/>
      <point x="138" y="7" type="line"/>
      <point x="138" y="-294" type="line"/>
    </contour>
    <contour>
      <point x="516" y="1414" type="line"/>
      <point x="491" y="1113" type="line" smooth="yes"/>
      <point x="453" y="659"/>
      <point x="428" y="270"/>
      <point x="336" y="98" type="curve"/>
      <point x="1111" y="98" type="line"/>
      <point x="1111" y="1415" type="line"/>
    </contour>
  </outline>
</glyph>
<glyph name="afii10033" format="1">
  <advance width="1502"/>
  <unicode hex="041F"/>
  <outline>
    <contour>
      <point x="207" y="0" type="line"/>
      <point x="383" y="0" type="line"/>
      <point x="383" y="1364" type="line"/>
      <point x="1142" y="1364" type="line"/>
      <point x="1142" y="0" type="line"/>
      <point x="1318" y="0" type="line"/>
      <point x="1318" y="1496" type="line"/>
      <point x="207" y="1496" type="line"/>
    </contour>
  </outline>
</glyph>
<glyph name="afii10038" format="1">
  <advance width="1634"/>
  <unicode hex="0424"/>
  <outline>
    <contour>
      <point x="884" y="262" type="curve"/>
      <point x="884" y="1215" type="line"/>
      <point x="1236" y="1180"/>
      <point x="1390" y="1006"/>
      <point x="1390" y="738" type="curve" smooth="yes"/>
      <point x="1390" y="473"/>
      <point x="1237" y="297"/>
    </contour>
    <contour>
      <point x="751" y="264" type="line"/>
      <point x="417" y="303"/>
      <point x="263" y="474"/>
      <point x="263" y="738" type="curve" smooth="yes"/>
      <point x="263" y="1003"/>
      <point x="416" y="1174"/>
      <point x="751" y="1213" type="curve"/>
    </contour>
    <contour>
      <point x="751" y="0" type="line"/>
      <point x="884" y="0" type="line"/>
      <point x="884" y="120" type="line"/>
      <point x="1305" y="152"/>
      <point x="1553" y="361"/>
      <point x="1553" y="737" type="curve" smooth="yes"/>
      <point x="1553" y="1115"/>
      <point x="1306" y="1326"/>
      <point x="884" y="1357" type="curve"/>
      <point x="884" y="1488" type="line"/>
      <point x="751" y="1488" type="line"/>
      <point x="751" y="1355" type="line"/>
      <point x="325" y="1314"/>
      <point x="100" y="1092"/>
      <point x="100" y="737" type="curve" smooth="yes"/>
      <point x="100" y="384"/>
      <point x="324" y="162"/>
      <point x="751" y="121" type="curve"/>
    </contour>
  </outline>
</glyph>
<glyph name="afii10066" format="1">
  <advance width="1076"/>
  <unicode hex="0431"/>
  <outline>
    <contour>
      <point x="561" y="74" type="curve" smooth="yes"/>
      <point x="804" y="74"/>
      <point x="874" y="199"/>
      <point x="874" y="445" type="curve" smooth="yes"/>
      <point x="874" y="613"/>
      <point x="766" y="765"/>
      <point x="607" y="765" type="curve" smooth="yes"/>
      <point x="555" y="765"/>
      <point x="395" y="751"/>
      <point x="248" y="603" type="curve"/>
      <point x="243" y="561"/>
      <point x="240" y="521"/>
      <point x="240" y="485" type="curve" smooth="yes"/>
      <point x="240" y="173"/>
      <point x="427" y="74"/>
    </contour>
    <contour>
      <point x="565" y="-20" type="curve" smooth="yes"/>
      <point x="151" y="-20"/>
      <point x="114" y="366"/>
      <point x="114" y="495" type="curve" smooth="yes"/>
      <point x="114" y="522"/>
      <point x="116" y="535"/>
      <point x="116" y="535" type="curve"/>
      <point x="116" y="939"/>
      <point x="285" y="1205"/>
      <point x="893" y="1241" type="curve"/>
      <point x="890" y="1162" type="line"/>
      <point x="622" y="1145"/>
      <point x="310" y="1105"/>
      <point x="230" y="703" type="curve"/>
      <point x="376" y="774"/>
      <point x="419" y="840"/>
      <point x="607" y="840" type="curve" smooth="yes"/>
      <point x="849" y="840"/>
      <point x="958" y="588"/>
      <point x="958" y="430" type="curve" smooth="yes"/>
      <point x="958" y="198"/>
      <point x="814" y="-20"/>
    </contour>
  </outline>
</glyph>
<glyph name="afii10068" format="1">
  <advance width="914"/>
  <unicode hex="0433"/>
  <outline>
    <contour>
      <point x="193" y="0" type="line"/>
      <point x="193" y="1081" type="line"/>
      <point x="859" y="1081" type="line"/>
      <point x="859" y="985" type="line"/>
      <point x="315" y="985" type="line"/>
      <point x="315" y="0" type="line"/>
    </contour>
  </outline>
</glyph>
<glyph name="afii10069" format="1">
  <advance width="1241"/>
  <unicode hex="0434"/>
  <outline>
    <contour>
      <point x="297" y="83" type="curve"/>
      <point x="918" y="83" type="line"/>
      <point x="918" y="1020" type="line"/>
      <point x="535" y="1020" type="line"/>
      <point x="528" y="994"/>
      <point x="435" y="390"/>
      <point x="437" y="410" type="curve"/>
      <point x="400" y="231"/>
      <point x="339" y="89"/>
    </contour>
    <contour>
      <point x="61" y="-275" type="line"/>
      <point x="61" y="85" type="line"/>
      <point x="164" y="85" type="line"/>
      <point x="246" y="109"/>
      <point x="267" y="186"/>
      <point x="304" y="292" type="curve"/>
      <point x="444" y="1090" type="line"/>
      <point x="1050" y="1090" type="line"/>
      <point x="1050" y="85" type="line"/>
      <point x="1111" y="85" type="line"/>
      <point x="1111" y="-275" type="line"/>
      <point x="1007" y="-275" type="line"/>
      <point x="1019" y="7" type="line"/>
      <point x="148" y="7" type="line"/>
      <point x="154" y="-275" type="line"/>
    </contour>
  </outline>
</glyph>
<glyph name="afii10076" format="1">
  <advance width="1200"/>
  <unicode hex="043A"/>
  <outline>
    <contour>
      <point x="208" y="0" type="line"/>
      <point x="208" y="1081" type="line"/>
      <point x="337" y="1081" type="line"/>
      <point x="337" y="561" type="line"/>
      <point x="804" y="1080" type="line"/>
      <point x="967" y="1082" type="line"/>
      <point x="475" y="541" type="line"/>
      <point x="1024" y="0" type="line"/>
      <point x="877" y="0" type="line"/>
      <point x="337" y="529" type="line"/>
      <point x="337" y="0" type="line"/>
    </contour>
  </outline>
</glyph>
<glyph name="afii10078" format="1">
  <advance width="1359"/>
  <unicode hex="043C"/>
  <outline>
    <contour>
      <point x="193" y="0" type="line"/>
      <point x="193" y="1081" type="line"/>
      <point x="302" y="1081" type="line"/>
      <point x="683" y="298" type="line"/>
      <point x="1061" y="1081" type="line"/>
      <point x="1167" y="1081" type="line"/>
      <point x="1167" y="0" type="line"/>
      <point x="1054" y="0" type="line"/>
      <point x="1054" y="839" type="line"/>
      <point x="727" y="166" type="line"/>
      <point x="636" y="166" type="line"/>
      <point x="306" y="839" type="line"/>
      <point x="306" y="0" type="line"/>
    </contour>
  </outline>
</glyph>
<glyph name="afii10079" format="1">
  <advance width="1246"/>
  <unicode hex="043D"/>
  <outline>
    <contour>
      <point x="193" y="0" type="line"/>
      <point x="193" y="1081" type="line"/>
      <point x="315" y="1081" type="line"/>
      <point x="315" y="623" type="line"/>
      <point x="932" y="623" type="line"/>
      <point x="932" y="1081" type="line"/>
      <point x="1054" y="1081" type="line"/>
      <point x="1054" y="0" type="line"/>
      <point x="932" y="0" type="line"/>
      <point x="932" y="526" type="line"/>
      <point x="315" y="526" type="line"/>
      <point x="315" y="0" type="line"/>
    </contour>
  </outline>
</glyph>
<glyph name="afii10085" format="1">
  <advance width="1118"/>
  <unicode hex="0443"/>
  <outline>
    <contour>
      <point x="251" y="-304" type="curve"/>
      <point x="251" y="-200" type="line"/>
      <point x="541" y="-200"/>
      <point x="584" y="-182"/>
      <point x="584" y="21" type="curve" smooth="yes"/>
      <point x="584" y="36" type="line" smooth="yes"/>
      <point x="583" y="158" type="line"/>
      <point x="118" y="1089" type="line"/>
      <point x="242" y="1089" type="line"/>
      <point x="630" y="299" type="line"/>
      <point x="946" y="1089" type="line"/>
      <point x="1066" y="1089" type="line"/>
      <point x="695" y="159" type="line"/>
      <point x="696" y="34" type="line" smooth="yes"/>
      <point x="696" y="9" type="line" smooth="yes"/>
      <point x="696" y="-248"/>
      <point x="647" y="-304"/>
    </contour>
  </outline>
</glyph>
<glyph name="afii10088" format="1">
  <advance width="1198"/>
  <unicode hex="0446"/>
  <outline>
    <contour>
      <point x="953" y="-275" type="line"/>
      <point x="968" y="7" type="line"/>
      <point x="208" y="7" type="line"/>
      <point x="208" y="1090" type="line"/>
      <point x="335" y="1090" type="line"/>
      <point x="335" y="86" type="line"/>
      <point x="890" y="86" type="line"/>
      <point x="890" y="1090" type="line"/>
      <point x="1019" y="1090" type="line"/>
      <point x="1019" y="145" type="line"/>
      <point x="1114" y="145" type="line"/>
      <point x="1114" y="-275" type="line"/>
    </contour>
  </outline>
</glyph>
<glyph name="afii10092" format="1">
  <advance width="1028"/>
  <unicode hex="044A"/>
  <outline>
    <contour>
      <point x="356" y="87" type="line"/>
      <point x="574" y="87" type="line" smooth="yes"/>
      <point x="729" y="87"/>
      <point x="771" y="248"/>
      <point x="771" y="358" type="curve" smooth="yes"/>
      <point x="771" y="474"/>
      <point x="716" y="592"/>
      <point x="567" y="592" type="curve" smooth="yes"/>
      <point x="356" y="592" type="line"/>
    </contour>
    <contour>
      <point x="228" y="0" type="line"/>
      <point x="228" y="1006" type="line"/>
      <point x="82" y="1006" type="line"/>
      <point x="82" y="1084" type="line"/>
      <point x="357" y="1084" type="line"/>
      <point x="357" y="688" type="line"/>
      <point x="557" y="688" type="line" smooth="yes"/>
      <point x="859" y="688"/>
      <point x="916" y="502"/>
      <point x="916" y="356" type="curve" smooth="yes"/>
      <point x="916" y="199"/>
      <point x="848" y="0"/>
      <point x="559" y="0" type="curve" smooth="yes"/>
    </contour>
  </outline>
</glyph>
<glyph name="afii10093" format="1">
  <advance width="1506"/>
  <unicode hex="044B"/>
  <outline>
    <contour>
      <point x="1192" y="0" type="line"/>
      <point x="1192" y="1084" type="line"/>
      <point x="1314" y="1084" type="line"/>
      <point x="1314" y="0" type="line"/>
    </contour>
    <contour>
      <point x="314" y="87" type="line"/>
      <point x="574" y="87" type="line" smooth="yes"/>
      <point x="730" y="87"/>
      <point x="819" y="170"/>
      <point x="819" y="356" type="curve" smooth="yes"/>
      <point x="819" y="516"/>
      <point x="728" y="590"/>
      <point x="577" y="590" type="curve" smooth="yes"/>
      <point x="314" y="590" type="line"/>
    </contour>
    <contour>
      <point x="193" y="0" type="line"/>
      <point x="193" y="1084" type="line"/>
      <point x="315" y="1084" type="line"/>
      <point x="315" y="685" type="line"/>
      <point x="568" y="685" type="line" smooth="yes"/>
      <point x="871" y="685"/>
      <point x="935" y="499"/>
      <point x="935" y="354" type="curve" smooth="yes"/>
      <point x="935" y="197"/>
      <point x="870" y="0"/>
      <point x="570" y="0" type="curve" smooth="yes"/>
    </contour>
  </outline>
</glyph>
<glyph name="afii10096" format="1">
  <advance width="1520"/>
  <unicode hex="044E"/>
  <outline>
    <contour>
      <point x="915" y="66" type="curve" smooth="yes"/>
      <point x="1169" y="66"/>
      <point x="1235" y="300"/>
      <point x="1235" y="539" type="curve" smooth="yes"/>
      <point x="1235" y="785"/>
      <point x="1179" y="1021"/>
      <point x="910" y="1021" type="curve" smooth="yes"/>
      <point x="652" y="1021"/>
      <point x="577" y="772"/>
      <point x="577" y="534" type="curve" smooth="yes"/>
      <point x="577" y="301"/>
      <point x="655" y="66"/>
    </contour>
    <contour>
      <point x="910" y="-28" type="curve" smooth="yes"/>
      <point x="600" y="-28"/>
      <point x="476" y="196"/>
      <point x="471" y="496" type="curve"/>
      <point x="260" y="496" type="line"/>
      <point x="260" y="1" type="line"/>
      <point x="172" y="1" type="line"/>
      <point x="172" y="1082" type="line"/>
      <point x="260" y="1082" type="line"/>
      <point x="260" y="582" type="line"/>
      <point x="471" y="582" type="line"/>
      <point x="477" y="877"/>
      <point x="603" y="1115"/>
      <point x="915" y="1115" type="curve" smooth="yes"/>
      <point x="1253" y="1115"/>
      <point x="1338" y="856"/>
      <point x="1338" y="542" type="curve" smooth="yes"/>
      <point x="1338" y="243"/>
      <point x="1241" y="-28"/>
    </contour>
  </outline>
</glyph>
<glyph name="afii10097" format="1">
  <advance width="1136"/>
  <unicode hex="044F"/>
  <outline>
    <contour>
      <point x="510" y="537" type="curve" smooth="yes"/>
      <point x="822" y="537" type="line"/>
      <point x="822" y="996" type="line"/>
      <point x="489" y="996" type="line" smooth="yes"/>
      <point x="278" y="996"/>
      <point x="241" y="875"/>
      <point x="241" y="767" type="curve" smooth="yes"/>
      <point x="241" y="628"/>
      <point x="336" y="537"/>
    </contour>
    <contour>
      <point x="181" y="0" type="line"/>
      <point x="381" y="453" type="line"/>
      <point x="186" y="502"/>
      <point x="124" y="661"/>
      <point x="124" y="774" type="curve" smooth="yes"/>
      <point x="124" y="918"/>
      <point x="218" y="1084"/>
      <point x="489" y="1084" type="curve" smooth="yes"/>
      <point x="944" y="1084" type="line"/>
      <point x="944" y="0" type="line"/>
      <point x="822" y="0" type="line"/>
      <point x="822" y="446" type="line"/>
      <point x="504" y="446" type="line"/>
      <point x="310" y="0" type="line"/>
    </contour>
  </outline>
</glyph>
<glyph name="afii10099" format="1">
  <advance width="1334"/>
  <unicode hex="0452"/>
  <outline>
    <contour>
      <point x="794" y="-280" type="line"/>
      <point x="783" y="-149" type="line"/>
      <point x="819" y="-149" type="line" smooth="yes"/>
      <point x="996" y="-149"/>
      <point x="1018" y="-113"/>
      <point x="1018" y="104" type="curve" smooth="yes"/>
      <point x="1018" y="371" type="line" smooth="yes"/>
      <point x="1018" y="621"/>
      <point x="985" y="749"/>
      <point x="791" y="749" type="curve" smooth="yes"/>
      <point x="614" y="749"/>
      <point x="472" y="607"/>
      <point x="444" y="498" type="curve"/>
      <point x="444" y="7" type="line"/>
      <point x="294" y="7" type="line"/>
      <point x="294" y="1106" type="line"/>
      <point x="201" y="1106" type="line"/>
      <point x="201" y="1209" type="line"/>
      <point x="294" y="1209" type="line"/>
      <point x="294" y="1509" type="line"/>
      <point x="444" y="1509" type="line"/>
      <point x="444" y="1209" type="line"/>
      <point x="861" y="1209" type="line"/>
      <point x="861" y="1106" type="line"/>
      <point x="444" y="1106" type="line"/>
      <point x="444" y="695" type="line"/>
      <point x="535" y="816"/>
      <point x="652" y="888"/>
      <point x="806" y="888" type="curve" smooth="yes"/>
      <point x="1056" y="888"/>
      <point x="1170" y="732"/>
      <point x="1170" y="445" type="curve" smooth="yes"/>
      <point x="1170" y="158" type="line" smooth="yes"/>
      <point x="1170" y="-150"/>
      <point x="1149" y="-280"/>
      <point x="860" y="-280" type="curve" smooth="yes"/>
    </contour>
  </outline>
</glyph>
<glyph name="afii10193" format="1">
  <advance width="1077"/>
  <unicode hex="045F"/>
  <outline>
    <contour>
      <point x="518" y="-260" type="line"/>
      <point x="629" y="-260" type="line"/>
      <point x="633" y="7" type="line"/>
      <point x="942" y="7" type="line"/>
      <point x="942" y="1092" type="line"/>
      <point x="802" y="1092" type="line"/>
      <point x="802" y="124" type="line"/>
      <point x="288" y="124" type="line"/>
      <point x="288" y="1092" type="line"/>
      <point x="148" y="1092" type="line"/>
      <point x="148" y="7" type="line"/>
      <point x="514" y="7" type="line"/>
    </contour>
  </outline>
</glyph>
<glyph name="quoteleft" format="1">
  <advance width="456"/>
  <unicode hex="2018"/>
  <outline>
    <contour>
      <point x="370" y="1473" type="line"/>
      <point x="255" y="1473" type="line"/>
      <point x="73" y="948" type="line"/>
      <point x="267" y="948" type="line"/>
    </contour>
    <contour>
      <point x="309.0" y="1544.55" type="move" name="_bot"/>
    </contour>
  </outline>
</glyph>
<glyph name="daggerdbl" format="1">
  <advance width="979"/>
  <unicode hex="2021"/>
  <outline>
    <contour>
      <point x="788" y="452" type="line"/>
      <point x="788" y="547" type="line"/>
      <point x="517" y="547" type="line"/>
      <point x="517" y="990" type="line"/>
      <point x="789" y="990" type="line"/>
      <point x="789" y="1090" type="line"/>
      <point x="513" y="1090" type="line"/>
      <point x="513" y="1475" type="line"/>
      <point x="406" y="1475" type="line"/>
      <point x="406" y="1090" type="line"/>
      <point x="130" y="1090" type="line"/>
      <point x="130" y="990" type="line"/>
      <point x="406" y="990" type="line"/>
      <point x="406" y="547" type="line"/>
      <point x="130" y="547" type="line"/>
      <point x="130" y="452" type="line"/>
      <point x="406" y="452" type="line"/>
      <point x="406" y="79" type="line"/>
      <point x="517" y="79" type="line"/>
      <point x="517" y="452" type="line"/>
    </contour>
  </outline>
</glyph>
<glyph name="guilsinglleft" format="1">
  <advance width="599"/>
  <unicode hex="2039"/>
  <outline>
    <contour>
      <point x="553" y="1001" type="line"/>
      <point x="393" y="1001" type="line"/>
      <point x="95" y="570" type="line"/>
      <point x="388" y="148" type="line"/>
      <point x="547" y="148" type="line"/>
      <point x="268" y="569" type="line"/>
    </contour>
  </outline>
</glyph>
<glyph name="Euro" format="1">
  <advance width="1292"/>
  <unicode hex="20AC"/>
  <outline>
    <contour>
      <point x="874" y="538" type="line"/>
      <point x="882" y="649" type="line"/>
      <point x="247" y="649" type="line"/>
      <point x="247" y="829" type="line"/>
      <point x="882" y="829" type="line"/>
      <point x="890" y="937" type="line"/>
      <point x="30" y="937" type="line"/>
      <point x="24" y="829" type="line"/>
      <point x="161" y="829" type="line"/>
      <point x="161" y="649" type="line"/>
      <point x="25" y="649" type="line"/>
      <point x="17" y="538" type="line"/>
    </contour>
    <component base="C"/>
  </outline>
</glyph>
<glyph name="trademark" format="1">
  <advance width="1770"/>
  <unicode hex="2122"/>
  <outline>
    <contour>
      <point x="338" y="582" type="line"/>
      <point x="433" y="582" type="line"/>
      <point x="433" y="1385" type="line"/>
      <point x="694" y="1385" type="line"/>
      <point x="694" y="1473" type="line"/>
      <point x="86" y="1473" type="line"/>
      <point x="85" y="1385" type="line"/>
      <point x="338" y="1385" type="line"/>
    </contour>
    <contour>
      <point x="830" y="582" type="line"/>
      <point x="922" y="582" type="line"/>
      <point x="922" y="1360" type="line"/>
      <point x="1195" y="662" type="line"/>
      <point x="1272" y="662" type="line"/>
      <point x="1563" y="1358" type="line"/>
      <point x="1563" y="582" type="line"/>
      <point x="1657" y="582" type="line"/>
      <point x="1657" y="1473" type="line"/>
      <point x="1529" y="1473" type="line"/>
      <point x="1241" y="783" type="line"/>
      <point x="966" y="1473" type="line"/>
      <point x="830" y="1473" type="line"/>
    </contour>
  </outline>
</glyph>
<glyph name="uni2206" format="1">
  <advance width="1358"/>
  <unicode hex="2206"/>
  <outline>
    <contour>
      <point x="302" y="173" type="line"/>
      <point x="1059" y="173" type="line"/>
      <point x="710" y="1192" type="line"/>
      <point x="676" y="1310" type="line"/>
      <point x="644" y="1192" type="line"/>
    </contour>
    <contour>
      <point x="106" y="0" type="line"/>
      <point x="106" y="85" type="line"/>
      <point x="588" y="1537" type="line"/>
      <point x="774" y="1537" type="line"/>
      <point x="1255" y="85" type="line"/>
      <point x="1255" y="0" type="line"/>
    </contour>
  </outline>
</glyph>
<glyph name="integral" format="1">
  <advance width="719"/>
  <unicode hex="222B"/>
  <outline>
    <contour>
      <point x="162" y="-411" type="curve" smooth="yes"/>
      <point x="129" y="-411"/>
      <point x="92" y="-407"/>
      <point x="51" y="-398" type="curve"/>
      <point x="51" y="-303" type="line"/>
      <point x="87" y="-313"/>
      <point x="120" y="-317"/>
      <point x="147" y="-317" type="curve" smooth="yes"/>
      <point x="284" y="-317"/>
      <point x="303" y="-204"/>
      <point x="303" y="-40" type="curve" smooth="yes"/>
      <point x="303" y="1153" type="line" smooth="yes"/>
      <point x="303" y="1394"/>
      <point x="365" y="1517"/>
      <point x="536" y="1517" type="curve" smooth="yes"/>
      <point x="570" y="1517"/>
      <point x="609" y="1512"/>
      <point x="653" y="1502" type="curve"/>
      <point x="653" y="1407" type="line"/>
      <point x="617" y="1418"/>
      <point x="587" y="1423"/>
      <point x="560" y="1423" type="curve" smooth="yes"/>
      <point x="443" y="1423"/>
      <point x="419" y="1322"/>
      <point x="419" y="1162" type="curve" smooth="yes"/>
      <point x="419" y="-32" type="line" smooth="yes"/>
      <point x="419" y="-278"/>
      <point x="343" y="-411"/>
    </contour>
  </outline>
</glyph>
<glyph name="lessequal" format="1">
  <advance width="1179"/>
  <unicode hex="2264"/>
  <outline>
    <contour>
      <point x="123" y="1" type="line"/>
      <point x="1064" y="1" type="line"/>
      <point x="1064" y="121" type="line"/>
      <point x="123" y="121" type="line"/>
    </contour>
    <contour>
      <point x="1035" y="258" type="line"/>
      <point x="1035" y="397" type="line"/>
      <point x="336" y="771" type="line"/>
      <point x="1035" y="1165" type="line"/>
      <point x="1035" y="1306" type="line"/>
      <point x="158" y="811" type="line"/>
      <point x="158" y="729" type="line"/>
    </contour>
  </outline>
</glyph>
<glyph name="lozenge" format="1">
  <advance width="1143"/>
  <unicode hex="25CA"/>
  <outline>
    <contour>
      <point x="574" y="133" type="line"/>
      <point x="260" y="769" type="line"/>
      <point x="580" y="1397" type="line"/>
      <point x="888" y="767" type="line"/>
    </contour>
    <contour>
      <point x="520" y="-47" type="line"/>
      <point x="620" y="-47" type="line"/>
      <point x="1036" y="769" type="line"/>
      <point x="628" y="1585" type="line"/>
      <point x="527" y="1585" type="line"/>
      <point x="112" y="767" type="line"/>
    </contour>
  </outline>
</glyph>
<glyph name="acute.cap" format="1">
  <advance width="619"/>
  <outline>
    <contour>
      <point x="112" y="1058" type="line"/>
      <point x="259" y="1058" type="line"/>
      <point x="571" y="1357" type="line"/>
      <point x="365" y="1357" type="line"/>
    </contour>
    <contour>
      <point x="200.0" y="945.25" type="move" name="_top"/>
    </contour>
  </outline>
</glyph>
<glyph name="commaaccent" format="1">
  <advance width="481"/>
  <outline>
    <contour>
      <point x="137" y="-290" type="curve"/>
      <point x="234" y="-290" type="line"/>
      <point x="234" y="-290"/>
      <point x="351" y="163"/>
      <point x="351" y="193" type="curve" smooth="yes"/>
      <point x="351" y="234" type="line"/>
      <point x="178" y="234" type="line"/>
      <point x="178" y="159"/>
      <point x="137" y="-290"/>
    </contour>
    <contour>
      <point x="261.0" y="383.425" type="move" name="_bot"/>
    </contour>
  </outline>
</glyph>
<glyph name="dotlessj" format="1">
  <advance width="553.0"/>
  <outline>
    <contour>
      <point x="19" y="-378" type="line"/>
      <point x="78" y="-371" type="line" smooth="yes"/>
      <point x="298" y="-344"/>
      <point x="378" y="-269"/>
      <point x="378" y="-10" type="curve" smooth="yes"/>
      <point x="378" y="1094" type="line"/>
      <point x="214" y="1094" type="line"/>
      <point x="214" y="21" type="line" smooth="yes"/>
      <point x="214" y="-169"/>
      <point x="211" y="-205"/>
      <point x="62" y="-235" type="curve" smooth="yes"/>
      <point x="0" y="-247" type="line"/>
    </contour>
    <contour>
      <point x="297.0" y="1093.9" type="move" name="top"/>
    </contour>
  </outline>
</glyph>
<glyph name="onesuperior" format="1">
  <advance width="780"/>
  <outline>
    <contour>
      <point x="239" y="572" type="line"/>
      <point x="670" y="572" type="line"/>
      <point x="670" y="684" type="line"/>
      <point x="531" y="684" type="line"/>
      <point x="531" y="1456" type="line"/>
      <point x="421" y="1456" type="line"/>
      <point x="379" y="1416"/>
      <point x="265" y="1365"/>
      <point x="229" y="1352" type="curve"/>
      <point x="229" y="1238" type="line"/>
      <point x="263" y="1251"/>
      <point x="356" y="1288"/>
      <point x="393" y="1312" type="curve"/>
      <point x="393" y="684" type="line"/>
      <point x="239" y="684" type="line"/>
    </contour>
  </outline>
</glyph>
<glyph name="threesuperior" format="1">
  <advance width="952"/>
  <outline>
    <contour>
      <point x="477" y="615" type="curve" smooth="yes"/>
      <point x="622" y="615"/>
      <point x="738" y="712"/>
      <point x="738" y="873" type="curve" smooth="yes"/>
      <point x="738" y="973"/>
      <point x="680" y="1053"/>
      <point x="575" y="1084" type="curve"/>
      <point x="681" y="1111"/>
      <point x="719" y="1198"/>
      <point x="719" y="1262" type="curve" smooth="yes"/>
      <point x="719" y="1419"/>
      <point x="597" y="1496"/>
      <point x="472" y="1496" type="curve" smooth="yes"/>
      <point x="385" y="1496"/>
      <point x="270" y="1461"/>
      <point x="214" y="1399" type="curve"/>
      <point x="268" y="1310" type="line"/>
      <point x="308" y="1351"/>
      <point x="400" y="1381"/>
      <point x="467" y="1381" type="curve" smooth="yes"/>
      <point x="537" y="1381"/>
      <point x="588" y="1342"/>
      <point x="588" y="1260" type="curve" smooth="yes"/>
      <point x="588" y="1177"/>
      <point x="511" y="1135"/>
      <point x="411" y="1135" type="curve" smooth="yes"/>
      <point x="340" y="1135" type="line"/>
      <point x="340" y="1019" type="line"/>
      <point x="414" y="1019" type="line" smooth="yes"/>
      <point x="524" y="1019"/>
      <point x="607" y="972"/>
      <point x="607" y="877" type="curve" smooth="yes"/>
      <point x="607" y="778"/>
      <point x="544" y="731"/>
      <point x="465" y="731" type="curve" smooth="yes"/>
      <point x="403" y="731"/>
      <point x="314" y="757"/>
      <point x="265" y="803" type="curve"/>
      <point x="216" y="704" type="line"/>
      <point x="276" y="641"/>
      <point x="395" y="615"/>
    </contour>
  </outline>
</glyph>
<glyph name="twosuperior" format="1">
  <advance width="933"/>
  <outline>
    <contour>
      <point x="226" y="630" type="line"/>
      <point x="747" y="630" type="line"/>
      <point x="753" y="744" type="line"/>
      <point x="392" y="744" type="line"/>
      <point x="563" y="911" type="line" smooth="yes"/>
      <point x="687" y="1032"/>
      <point x="761" y="1104"/>
      <point x="761" y="1245" type="curve" smooth="yes"/>
      <point x="761" y="1412"/>
      <point x="626" y="1501"/>
      <point x="474" y="1501" type="curve" smooth="yes"/>
      <point x="359" y="1501"/>
      <point x="238" y="1442"/>
      <point x="185" y="1346" type="curve"/>
      <point x="257" y="1267" type="line"/>
      <point x="315" y="1346"/>
      <point x="398" y="1381"/>
      <point x="476" y="1381" type="curve" smooth="yes"/>
      <point x="558" y="1381"/>
      <point x="629" y="1335"/>
      <point x="629" y="1237" type="curve" smooth="yes"/>
      <point x="629" y="1166"/>
      <point x="589" y="1104"/>
      <point x="474" y="988" type="curve" smooth="yes"/>
      <point x="226" y="740" type="line"/>
    </contour>
  </outline>
</glyph>
<glyph name="u.alt" format="1">
  <advance width="1118"/>
  <outline>
    <contour>
      <point x="559" y="-18" type="curve" smooth="yes"/>
      <point x="264" y="-18"/>
      <point x="126" y="127"/>
      <point x="126" y="437" type="curve" smooth="yes"/>
      <point x="126" y="1085" type="line"/>
      <point x="292" y="1085" type="line"/>
      <point x="292" y="439" type="line" smooth="yes"/>
      <point x="292" y="226"/>
      <point x="354" y="109"/>
      <point x="559" y="109" type="curve" smooth="yes"/>
      <point x="764" y="109"/>
      <point x="826" y="226"/>
      <point x="826" y="439" type="curve" smooth="yes"/>
      <point x="826" y="1085" type="line"/>
      <point x="992" y="1085" type="line"/>
      <point x="992" y="437" type="line" smooth="yes"/>
      <point x="992" y="125"/>
      <point x="855" y="-18"/>
    </contour>
  </outline>
</glyph>
<glyph name="uni030F.cap" format="1">
  <advance width="695"/>
  <outline>
    <contour>
      <point x="362" y="1058" type="line"/>
      <point x="257" y="1058" type="line"/>
      <point x="1" y="1409" type="line"/>
      <point x="164" y="1409" type="line"/>
    </contour>
    <contour>
      <point x="565" y="1058" type="line"/>
      <point x="472" y="1058" type="line"/>
      <point x="274" y="1409" type="line"/>
      <point x="432" y="1409" type="line"/>
    </contour>
    <contour>
      <point x="435.0" y="945.25" type="move" name="_top"/>
    </contour>
  </outline>
</glyph>
